<svg aria-hidden="true" style="position: absolute; width: 0; height: 0; overflow: hidden;" version="1.1" xmlns="http://www.w3.org/2000/svg" xmlns:xlink="http://www.w3.org/1999/xlink">
<defs>
<symbol id="icon-google" viewBox="0 0 81 32">
<path fill="#5f6368" style="fill: var(--color1, #5f6368)" d="M38.113 15.635v9.377h-2.977v-23.163h7.892c1.904-0.040 3.743 0.682 5.111 2.005 1.384 1.246 2.164 3.028 2.133 4.888 0.041 1.873-0.739 3.669-2.133 4.918-1.381 1.316-3.085 1.975-5.111 1.971l-4.915 0.003zM38.113 4.702v8.088h4.989c1.107 0.034 2.174-0.402 2.943-1.198 1.563-1.519 1.6-4.020 0.078-5.583-0.027-0.027-0.051-0.054-0.078-0.078-0.76-0.814-1.833-1.259-2.943-1.229h-4.989zM57.131 8.648c2.201 0 3.936 0.587 5.208 1.762s1.907 2.788 1.907 4.834v9.769h-2.846v-2.201h-0.128c-1.232 1.813-2.873 2.717-4.918 2.717-1.745 0-3.207-0.516-4.381-1.553-1.141-0.962-1.789-2.386-1.762-3.882 0-1.64 0.621-2.943 1.86-3.912s2.893-1.455 4.965-1.455c1.765 0 3.224 0.324 4.365 0.969v-0.682c0.007-1.019-0.446-1.985-1.229-2.633-0.786-0.709-1.813-1.097-2.873-1.084-1.661 0-2.977 0.702-3.946 2.103l-2.619-1.651c1.438-2.069 3.571-3.102 6.397-3.102v0zM53.279 20.162c-0.003 0.77 0.365 1.492 0.986 1.941 0.658 0.516 1.475 0.793 2.312 0.776 1.256-0.003 2.461-0.503 3.349-1.391 0.986-0.928 1.478-2.015 1.478-3.267-0.928-0.739-2.221-1.111-3.882-1.111-1.208 0-2.218 0.29-3.024 0.874-0.813 0.594-1.219 1.313-1.219 2.177v0zM80.584 9.165l-9.934 22.835h-3.072l3.686-7.99-6.535-14.846h3.234l4.722 11.386h0.064l4.594-11.386h3.24z"></path>
<path fill="#4285f4" style="fill: var(--color2, #4285f4)" d="M26.086 13.61c0-0.908-0.074-1.813-0.23-2.707h-12.55v5.124h7.187c-0.297 1.654-1.256 3.116-2.657 4.044v3.328h4.29c2.511-2.312 3.959-5.738 3.959-9.789v0z"></path>
<path fill="#34a853" style="fill: var(--color3, #34a853)" d="M13.306 26.616c3.592 0 6.616-1.178 8.82-3.213l-4.29-3.328c-1.195 0.81-2.731 1.273-4.53 1.273-3.47 0-6.417-2.339-7.47-5.492h-4.419v3.43c2.258 4.496 6.859 7.332 11.889 7.332z"></path>
<path fill="#fbbc04" style="fill: var(--color4, #fbbc04)" d="M5.836 15.855c-0.557-1.651-0.557-3.443 0-5.094v-3.43h-4.419c-1.89 3.76-1.89 8.192 0 11.953l4.419-3.43z"></path>
<path fill="#ea4335" style="fill: var(--color5, #ea4335)" d="M13.306 5.269c1.897-0.030 3.73 0.685 5.104 1.995l3.801-3.797c-2.41-2.262-5.6-3.504-8.905-3.467-5.030 0-9.63 2.839-11.889 7.332l4.419 3.43c1.053-3.153 4-5.492 7.47-5.492z"></path>
</symbol>
<symbol id="icon-visa" viewBox="0 0 32 32">
<path fill="#2566af" style="fill: var(--color6, #2566af)" d="M14.209 20.223h-2.197l1.373-8.441h2.198zM10.163 11.783l-2.095 5.805-0.248-1.25 0 0-0.739-3.796s-0.089-0.76-1.042-0.76h-3.463l-0.041 0.143s1.059 0.22 2.299 0.965l1.909 7.333h2.29l3.496-8.441h-2.365zM27.448 20.223h2.018l-1.759-8.441h-1.767c-0.816 0-1.014 0.629-1.014 0.629l-3.277 7.812h2.291l0.458-1.254h2.794l0.257 1.254zM25.030 17.238l1.155-3.159 0.65 3.159h-1.804zM21.82 13.812l0.314-1.813s-0.968-0.368-1.976-0.368c-1.090 0-3.68 0.477-3.68 2.794 0 2.181 3.039 2.208 3.039 3.353s-2.726 0.94-3.626 0.218l-0.327 1.895s0.981 0.477 2.48 0.477c1.5 0 3.762-0.776 3.762-2.89 0-2.195-3.067-2.399-3.067-3.353s2.14-0.832 3.081-0.314z"></path>
<path fill="#e6a540" style="fill: var(--color7, #e6a540)" d="M7.821 16.338l-0.739-3.796s-0.089-0.76-1.042-0.76h-3.463l-0.041 0.143s1.665 0.345 3.261 1.638c1.527 1.235 2.025 2.775 2.025 2.775z"></path>
</symbol>
<symbol id="icon-pci" viewBox="0 0 32 32">
<path fill="#225e63" style="fill: var(--color8, #225e63)" d="M21.129 16.55l0.294 0.088c-0.020 0.083-0.049 0.152-0.093 0.206s-0.093 0.098-0.157 0.123c-0.064 0.029-0.142 0.044-0.241 0.044-0.118 0-0.211-0.015-0.29-0.049-0.074-0.034-0.137-0.093-0.191-0.182-0.054-0.083-0.083-0.196-0.083-0.329 0-0.177 0.049-0.314 0.142-0.412s0.231-0.142 0.402-0.142c0.137 0 0.241 0.029 0.319 0.083s0.137 0.137 0.172 0.255l-0.294 0.064c-0.010-0.034-0.020-0.059-0.034-0.074-0.020-0.025-0.039-0.044-0.069-0.059s-0.059-0.020-0.088-0.020c-0.074 0-0.133 0.029-0.172 0.093-0.029 0.044-0.044 0.118-0.044 0.211 0 0.118 0.020 0.201 0.054 0.245s0.088 0.069 0.152 0.069c0.064 0 0.113-0.020 0.142-0.054 0.039-0.044 0.064-0.093 0.079-0.162z"></path>
<path fill="#225e63" style="fill: var(--color8, #225e63)" d="M21.541 16.452c0-0.177 0.049-0.314 0.147-0.412s0.236-0.147 0.412-0.147c0.182 0 0.319 0.049 0.417 0.142 0.098 0.098 0.147 0.231 0.147 0.407 0 0.128-0.020 0.231-0.064 0.309s-0.103 0.142-0.186 0.186c-0.079 0.044-0.182 0.069-0.299 0.069-0.123 0-0.221-0.020-0.304-0.059-0.079-0.039-0.142-0.098-0.196-0.186s-0.074-0.182-0.074-0.309zM21.875 16.452c0 0.108 0.020 0.186 0.059 0.236s0.093 0.074 0.167 0.074c0.074 0 0.128-0.025 0.167-0.069 0.039-0.049 0.059-0.133 0.059-0.25 0-0.103-0.020-0.177-0.064-0.221-0.039-0.049-0.098-0.069-0.167-0.069s-0.123 0.025-0.162 0.074c-0.039 0.039-0.059 0.118-0.059 0.226z"></path>
<path fill="#225e63" style="fill: var(--color8, #225e63)" d="M22.837 15.912h0.437l0.167 0.658 0.167-0.658h0.437v1.080h-0.275v-0.825l-0.211 0.825h-0.245l-0.211-0.825v0.825h-0.275v-1.080z"></path>
<path fill="#225e63" style="fill: var(--color8, #225e63)" d="M24.26 15.912h0.555c0.123 0 0.211 0.029 0.27 0.088s0.088 0.137 0.088 0.245c0 0.108-0.034 0.196-0.098 0.255-0.064 0.064-0.167 0.093-0.299 0.093h-0.182v0.402h-0.334v-1.085zM24.594 16.373h0.083c0.064 0 0.108-0.010 0.137-0.034 0.025-0.025 0.039-0.049 0.039-0.083s-0.010-0.064-0.034-0.088c-0.025-0.025-0.064-0.034-0.128-0.034h-0.093v0.241z"></path>
<path fill="#225e63" style="fill: var(--color8, #225e63)" d="M25.35 15.912h0.334v0.815h0.52v0.265h-0.854v-1.080z"></path>
<path fill="#225e63" style="fill: var(--color8, #225e63)" d="M26.371 15.912h0.334v1.080h-0.334v-1.080z"></path>
<path fill="#225e63" style="fill: var(--color8, #225e63)" d="M27.607 16.81h-0.378l-0.054 0.177h-0.339l0.407-1.080h0.363l0.407 1.080h-0.348l-0.059-0.177zM27.539 16.579l-0.118-0.388-0.118 0.388h0.236z"></path>
<path fill="#225e63" style="fill: var(--color8, #225e63)" d="M28.118 15.912h0.309l0.407 0.599v-0.599h0.314v1.080h-0.314l-0.402-0.594v0.594h-0.314v-1.080z"></path>
<path fill="#225e63" style="fill: var(--color8, #225e63)" d="M29.296 15.912h1.016v0.265h-0.339v0.815h-0.334v-0.815h-0.339v-0.265z"></path>
<path fill="#225e63" style="fill: var(--color8, #225e63)" d="M17.114 17.556l0.967-0.304-0.314-0.697c-0.231 0.29-0.461 0.663-0.653 1.001zM16.785 14.371l-1.894-4.221-13.87 0.785 3.843 10.483 7.396-2.331c-0.471-0.677-0.643-1.482-0.098-1.875 0.609-0.442 1.526 0.069 2.11 0.79 0.564-0.942 2.15-3.136 2.513-3.632z"></path>
<path fill="#fefefe" style="fill: var(--color9, #fefefe)" d="M14.459 13.2c0.579 0 1.050-0.442 1.050-0.991s-0.471-0.991-1.050-0.991c-0.579 0-1.050 0.442-1.050 0.991 0 0.545 0.471 0.991 1.050 0.991zM13.6 13.627h1.718v4.491h-1.718v-4.491z"></path>
<path fill="#fefefe" style="fill: var(--color9, #fefefe)" d="M12.751 14.937c0.015 0.005 0.025 0 0.025-0.015v-1.139c0-0.015-0.010-0.029-0.025-0.039 0 0-0.226-0.147-0.913-0.187-0.034-0.020-0.638-0.025-0.8 0-2.503 0.201-2.596 2.012-2.596 2.091v0.442c0 0.054 0 1.904 2.596 2.066 0.255 0.020 0.751 0 0.8 0 0.599 0 1.011-0.182 1.011-0.182 0.015-0.005 0.025-0.020 0.025-0.034v-1.065c0-0.015-0.010-0.020-0.020-0.010 0 0-0.187 0.147-1.001 0.231-0.231 0.025-0.344 0.015-0.427 0-1.158-0.196-1.212-1.041-1.212-1.041 0-0.015-0.005-0.039-0.005-0.049v-0.324c0-0.015 0-0.039 0.005-0.049 0 0 0.079-0.908 1.212-1.006h0.427c0.496 0.064 0.898 0.309 0.898 0.309z"></path>
<path fill="#fefefe" style="fill: var(--color9, #fefefe)" d="M3.671 18.103c0 0.015 0.010 0.025 0.025 0.025h1.674c0.015 0 0.025-0.010 0.025-0.025v-1.306c0-0.015 0.010-0.025 0.025-0.025 0 0 2.675 0.191 2.675-1.6 0-1.418-1.679-1.571-2.228-1.546-0.010 0-2.169 0-2.169 0-0.015 0-0.025 0.010-0.025 0.025v4.452zM5.364 15.777v-1.173h0.412c0 0 0.594 0.025 0.643 0.432 0.010 0.029 0.010 0.231 0 0.241-0.079 0.476-0.594 0.501-0.594 0.501h-0.461z"></path>
<path fill="#2bbc5d" style="fill: var(--color10, #2bbc5d)" d="M14.508 20.285c0.137 0 0.245 0 0.422-0.079 0.609-0.319 2.665-5.34 4.834-6.886 0.015-0.010 0.029-0.025 0.039-0.039 0.015-0.020 0.015-0.039 0.015-0.039s0-0.103-0.319-0.103c-1.929-0.054-3.936 3.995-4.991 5.595-0.015 0.020-0.083 0-0.083 0s-0.707-0.834-1.32-1.153c-0.015-0.005-0.083-0.029-0.157-0.025-0.049 0-0.334 0.059-0.466 0.196-0.157 0.167-0.152 0.26-0.152 0.461 0 0.015 0.010 0.083 0.029 0.118 0.152 0.265 0.834 1.207 1.399 1.728 0.083 0.064 0.216 0.226 0.751 0.226z"></path>
<path fill="#225e63" style="fill: var(--color8, #225e63)" d="M20.334 11.804h1.605c0.319 0 0.574 0.044 0.766 0.128 0.196 0.088 0.358 0.211 0.481 0.368 0.128 0.162 0.221 0.348 0.275 0.559 0.059 0.211 0.088 0.437 0.088 0.677 0 0.373-0.044 0.663-0.128 0.869s-0.201 0.378-0.353 0.52c-0.152 0.137-0.314 0.231-0.486 0.28-0.236 0.064-0.452 0.093-0.643 0.093h-1.605v-3.494zM21.413 12.594v1.909h0.265c0.226 0 0.388-0.025 0.481-0.074s0.172-0.137 0.226-0.26c0.054-0.123 0.083-0.329 0.083-0.609 0-0.373-0.059-0.623-0.182-0.761s-0.319-0.206-0.604-0.206h-0.27z"></path>
<path fill="#225e63" style="fill: var(--color8, #225e63)" d="M23.848 14.145l1.031-0.064c0.025 0.167 0.069 0.294 0.137 0.383 0.113 0.142 0.27 0.211 0.476 0.211 0.152 0 0.275-0.034 0.358-0.108s0.128-0.157 0.128-0.25c0-0.088-0.039-0.172-0.118-0.245s-0.265-0.137-0.555-0.201c-0.476-0.108-0.81-0.25-1.016-0.427s-0.304-0.402-0.304-0.677c0-0.182 0.054-0.348 0.157-0.51s0.26-0.285 0.471-0.378c0.211-0.093 0.496-0.137 0.859-0.137 0.447 0 0.79 0.083 1.021 0.25 0.236 0.167 0.373 0.432 0.417 0.795l-1.021 0.059c-0.029-0.157-0.083-0.27-0.172-0.344s-0.206-0.108-0.358-0.108c-0.128 0-0.221 0.025-0.285 0.079s-0.093 0.118-0.093 0.196c0 0.054 0.025 0.108 0.079 0.152 0.049 0.044 0.172 0.088 0.363 0.128 0.471 0.103 0.81 0.206 1.016 0.309s0.353 0.236 0.447 0.388c0.093 0.152 0.137 0.329 0.137 0.52 0 0.226-0.064 0.432-0.186 0.618-0.123 0.191-0.299 0.334-0.52 0.432s-0.506 0.147-0.844 0.147c-0.594 0-1.006-0.113-1.237-0.344-0.226-0.231-0.353-0.52-0.388-0.874z"></path>
<path fill="#225e63" style="fill: var(--color8, #225e63)" d="M27.298 14.145l1.031-0.064c0.025 0.167 0.069 0.294 0.137 0.383 0.113 0.142 0.27 0.211 0.476 0.211 0.152 0 0.275-0.034 0.358-0.108s0.128-0.157 0.128-0.25c0-0.088-0.039-0.172-0.118-0.245s-0.265-0.137-0.555-0.201c-0.476-0.108-0.81-0.25-1.016-0.427-0.201-0.177-0.304-0.402-0.304-0.677 0-0.182 0.054-0.348 0.157-0.51s0.26-0.285 0.471-0.378c0.211-0.093 0.496-0.137 0.859-0.137 0.447 0 0.79 0.083 1.021 0.25 0.236 0.167 0.373 0.432 0.417 0.795l-1.021 0.059c-0.029-0.157-0.083-0.27-0.172-0.344s-0.206-0.108-0.358-0.108c-0.128 0-0.221 0.025-0.285 0.079s-0.093 0.118-0.093 0.196c0 0.054 0.025 0.108 0.079 0.152 0.049 0.044 0.172 0.088 0.363 0.128 0.471 0.103 0.81 0.206 1.016 0.309s0.353 0.236 0.447 0.388c0.093 0.152 0.137 0.329 0.137 0.52 0 0.226-0.064 0.432-0.186 0.618-0.123 0.191-0.299 0.334-0.52 0.432s-0.506 0.147-0.844 0.147c-0.594 0-1.006-0.113-1.237-0.344s-0.358-0.52-0.388-0.874z"></path>
</symbol>
<symbol id="icon-mastercard" viewBox="0 0 41 32">
<path fill="#231f20" style="fill: var(--color11, #231f20)" d="M40.321 31.566v0.082h0.077c0 0 0.001 0 0.001 0 0.015 0 0.028-0.004 0.040-0.011l-0 0c0.009-0.007 0.015-0.018 0.015-0.030 0-0.001 0-0.001-0-0.002v0c0-0 0-0.001 0-0.002 0-0.012-0.006-0.023-0.015-0.029l-0-0c-0.011-0.007-0.024-0.011-0.038-0.011-0.001 0-0.002 0-0.003 0h-0.077zM40.398 31.508c0.003-0 0.006-0 0.009-0 0.031 0 0.060 0.010 0.084 0.027l-0-0c0.020 0.016 0.032 0.041 0.032 0.068 0 0.002-0 0.003-0 0.005v-0c0 0.001 0 0.002 0 0.003 0 0.024-0.010 0.045-0.026 0.061l-0 0c-0.020 0.017-0.045 0.029-0.073 0.031l-0 0 0.103 0.117h-0.079l-0.095-0.116h-0.031v0.116h-0.066v-0.311h0.144zM40.378 31.927c0.001 0 0.002 0 0.002 0 0.036 0 0.070-0.008 0.1-0.021l-0.002 0.001c0.032-0.014 0.059-0.033 0.082-0.056v0c0.023-0.023 0.042-0.050 0.055-0.081l0.001-0.002c0.013-0.030 0.020-0.065 0.020-0.102s-0.007-0.072-0.021-0.104l0.001 0.002c-0.014-0.032-0.033-0.059-0.056-0.082l0 0c-0.023-0.023-0.050-0.042-0.081-0.055l-0.002-0.001c-0.029-0.012-0.063-0.019-0.098-0.019-0.001 0-0.002 0-0.003 0h0c-0.001 0-0.002 0-0.002 0-0.036 0-0.071 0.007-0.102 0.020l0.002-0.001c-0.033 0.014-0.061 0.033-0.084 0.056l0-0c-0.047 0.048-0.075 0.113-0.075 0.185 0 0.037 0.008 0.072 0.021 0.104l-0.001-0.002c0.013 0.032 0.032 0.059 0.055 0.082l0 0c0.024 0.023 0.051 0.042 0.082 0.055l0.002 0.001c0.030 0.013 0.064 0.021 0.101 0.021 0.001 0 0.002 0 0.002 0h-0zM40.378 31.332c0 0 0 0 0 0 0.094 0 0.179 0.038 0.241 0.099l-0-0c0.030 0.030 0.055 0.065 0.072 0.105l0.001 0.002c0.017 0.038 0.027 0.083 0.027 0.13s-0.010 0.092-0.027 0.132l0.001-0.002c-0.018 0.041-0.043 0.077-0.073 0.107v0c-0.031 0.029-0.066 0.054-0.106 0.071l-0.002 0.001c-0.039 0.017-0.084 0.027-0.131 0.027-0.001 0-0.001 0-0.002 0h0c-0.001 0-0.002 0-0.002 0-0.048 0-0.093-0.010-0.135-0.028l0.002 0.001c-0.042-0.018-0.079-0.042-0.109-0.072l0 0c-0.030-0.031-0.054-0.067-0.071-0.108l-0.001-0.002c-0.017-0.038-0.027-0.083-0.027-0.13s0.010-0.092 0.027-0.132l-0.001 0.002c0.018-0.042 0.042-0.077 0.073-0.107l0-0c0.030-0.030 0.067-0.055 0.107-0.071l0.002-0.001c0.039-0.017 0.085-0.027 0.132-0.027 0.001 0 0.002 0 0.003 0h-0zM8.888 30.131c0-0.593 0.389-1.081 1.024-1.081 0.607 0 1.017 0.466 1.017 1.081s-0.41 1.081-1.017 1.081c-0.635 0-1.024-0.487-1.024-1.081zM11.62 30.131v-1.688h-0.734v0.411c-0.233-0.304-0.586-0.495-1.066-0.495-0.946 0-1.688 0.742-1.688 1.773s0.742 1.773 1.688 1.773c0.48 0 0.833-0.191 1.066-0.495v0.41h0.733v-1.689zM36.421 30.131c0-0.593 0.389-1.081 1.024-1.081 0.608 0 1.017 0.466 1.017 1.081s-0.409 1.081-1.017 1.081c-0.635 0-1.024-0.487-1.024-1.081zM39.154 30.131v-3.044h-0.735v1.767c-0.233-0.304-0.586-0.495-1.066-0.495-0.946 0-1.688 0.742-1.688 1.773s0.742 1.773 1.688 1.773c0.48 0 0.833-0.191 1.066-0.495v0.41h0.735v-1.689zM20.73 29.015c0.473 0 0.777 0.297 0.854 0.819h-1.751c0.078-0.487 0.374-0.819 0.897-0.819zM20.745 28.357c-0.989 0-1.681 0.72-1.681 1.773 0 1.073 0.72 1.773 1.73 1.773 0.508 0 0.974-0.127 1.384-0.473l-0.36-0.544c-0.283 0.226-0.643 0.353-0.982 0.353-0.473 0-0.904-0.219-1.010-0.827h2.506c0.007-0.091 0.015-0.183 0.015-0.282-0.007-1.052-0.658-1.773-1.603-1.773zM29.606 30.129c0-0.593 0.389-1.081 1.024-1.081 0.607 0 1.017 0.466 1.017 1.081s-0.41 1.081-1.017 1.081c-0.635 0-1.024-0.487-1.024-1.081zM32.339 30.129v-1.687h-0.734v0.411c-0.234-0.304-0.586-0.495-1.066-0.495-0.946 0-1.688 0.742-1.688 1.773s0.742 1.773 1.688 1.773c0.48 0 0.832-0.191 1.066-0.495v0.41h0.734v-1.689zM25.461 30.129c0 1.024 0.713 1.773 1.801 1.773 0.508 0 0.847-0.113 1.213-0.402l-0.352-0.593c-0.276 0.198-0.565 0.304-0.884 0.304-0.586-0.007-1.017-0.431-1.017-1.081s0.431-1.073 1.017-1.081c0.319 0 0.608 0.106 0.884 0.304l0.352-0.593c-0.367-0.289-0.706-0.402-1.213-0.402-1.088 0-1.801 0.748-1.801 1.773zM34.923 28.357c-0.423 0-0.699 0.198-0.89 0.495v-0.409h-0.727v3.375h0.735v-1.892c0-0.559 0.24-0.869 0.72-0.869 0.005-0 0.011-0 0.017-0 0.159 0 0.311 0.031 0.45 0.088l-0.008-0.003 0.226-0.692c-0.162-0.064-0.374-0.092-0.523-0.092zM15.249 28.711c-0.353-0.233-0.84-0.353-1.376-0.353-0.855 0-1.406 0.41-1.406 1.081 0 0.55 0.41 0.89 1.165 0.996l0.347 0.049c0.402 0.057 0.592 0.162 0.592 0.353 0 0.261-0.267 0.41-0.769 0.41-0.508 0-0.875-0.162-1.123-0.353l-0.345 0.572c0.402 0.297 0.911 0.438 1.461 0.438 0.975 0 1.54-0.459 1.54-1.102 0-0.593-0.445-0.904-1.179-1.010l-0.346-0.050c-0.318-0.041-0.572-0.105-0.572-0.331 0-0.247 0.24-0.395 0.643-0.395 0.431 0 0.848 0.162 1.052 0.289l0.318-0.593zM24.72 28.358c-0.423 0-0.699 0.198-0.889 0.495v-0.41h-0.727v3.375h0.734v-1.892c0-0.559 0.24-0.869 0.72-0.869 0.005-0 0.011-0 0.017-0 0.159 0 0.311 0.031 0.45 0.088l-0.008-0.003 0.226-0.692c-0.162-0.064-0.374-0.092-0.523-0.092zM18.456 28.442h-1.2v-1.024h-0.742v1.024h-0.685v0.671h0.685v1.54c0 0.783 0.304 1.25 1.172 1.25 0.319 0 0.685-0.099 0.918-0.261l-0.212-0.628c-0.219 0.127-0.459 0.191-0.65 0.191-0.367 0-0.487-0.226-0.487-0.565v-1.525h1.2zM7.483 31.818v-2.118c0-0.798-0.508-1.334-1.328-1.342-0.431-0.007-0.875 0.127-1.186 0.601-0.233-0.374-0.6-0.601-1.115-0.601-0.361 0-0.713 0.106-0.989 0.501v-0.417h-0.735v3.375h0.74v-1.871c0-0.586 0.325-0.897 0.827-0.897 0.487 0 0.734 0.318 0.734 0.89v1.878h0.742v-1.871c0-0.586 0.339-0.897 0.826-0.897 0.501 0 0.74 0.318 0.74 0.89v1.878z"></path>
<path fill="#f79410" style="fill: var(--color12, #f79410)" d="M40.739 20.591v-0.494h-0.129l-0.149 0.339-0.148-0.339h-0.129v0.494h0.091v-0.372l0.139 0.321h0.095l0.139-0.322v0.373h0.090zM39.924 20.591v-0.409h0.165v-0.083h-0.42v0.083h0.165v0.409h0.090z"></path>
<path fill="#ff5f00" style="fill: var(--color13, #ff5f00)" d="M26.13 22.707h-11.123v-19.99h11.123z"></path>
<path fill="#eb001b" style="fill: var(--color14, #eb001b)" d="M15.712 12.713c0-4.055 1.899-7.667 4.855-9.995-2.133-1.694-4.866-2.718-7.837-2.718-0.007 0-0.013 0-0.020 0h0.001c-7.020 0-12.711 5.692-12.711 12.713s5.691 12.713 12.711 12.713c0.006 0 0.012 0 0.019 0 2.971 0 5.704-1.024 7.863-2.738l-0.026 0.020c-2.956-2.327-4.855-5.94-4.855-9.995z"></path>
<path fill="#f79e1b" style="fill: var(--color15, #f79e1b)" d="M41.136 12.713c0 7.021-5.691 12.713-12.711 12.713-0.006 0-0.012 0-0.019 0-2.972 0-5.705-1.024-7.865-2.738l0.026 0.020c2.957-2.328 4.856-5.94 4.856-9.995s-1.899-7.667-4.856-9.995c2.134-1.694 4.867-2.718 7.838-2.718 0.006 0 0.013 0 0.019 0h-0.001c7.020 0 12.711 5.692 12.711 12.713z"></path>
</symbol>
<symbol id="icon-privat" viewBox="0 0 64 32">
<path fill="#60b238" style="fill: var(--color16, #60b238)" d="M18.385 17.755h-1.090v-3.852h3.923v3.852h-1.089v-3.104h-1.744z"></path>
<path fill="#60b238" style="fill: var(--color16, #60b238)" d="M21.747 14.959v3.814h1.004v-1.304c0.337 0.363 0.885 0.391 1.017 0.391 0.958 0 1.545-0.611 1.545-1.497 0-0.925-0.581-1.508-1.525-1.508-0.238 0-0.7 0.039-1.083 0.44h-0.020l0.006-0.336h-0.944zM22.704 16.352c0-0.781 0.482-0.935 0.786-0.935 0.297 0 0.779 0.154 0.779 0.935 0 0.485-0.205 0.947-0.779 0.947-0.588 0-0.786-0.462-0.786-0.947z"></path>
<path fill="#60b238" style="fill: var(--color16, #60b238)" d="M27.803 17.42c-0.37 0.346-0.726 0.44-1.122 0.44-1.083 0-1.123-0.815-1.123-1.15v-1.75h1.004v1.618c0 0.556 0.192 0.721 0.561 0.721 0.634 0 0.68-0.567 0.68-0.771v-1.569h1.004v2.796h-1.004v-0.335z"></path>
<path fill="#60b238" style="fill: var(--color16, #60b238)" d="M30.247 16.577h0.614c0.475 0 0.574 0.143 0.574 0.33 0 0.121-0.066 0.286-0.562 0.286h-0.627v-0.617zM29.243 14.959v2.796h1.994c0.726 0 1.228-0.143 1.228-0.715 0-0.44-0.245-0.633-0.799-0.732v-0.017c0.363-0.050 0.68-0.275 0.68-0.655 0-0.677-0.793-0.677-1.103-0.677h-2.001zM30.247 15.521h0.541c0.284 0 0.528 0.044 0.528 0.275 0 0.253-0.383 0.259-0.548 0.259h-0.521v-0.534z"></path>
<path fill="#60b238" style="fill: var(--color16, #60b238)" d="M33.733 15.862c0-0.413 0.436-0.446 0.614-0.446 0.112 0 0.528 0.006 0.542 0.369 0 0.028 0 0.050 0 0.077-0.020 0.275-0.284 0.22-1.023 0.314-0.608 0.083-1.249 0.236-1.249 0.875 0 0.231 0.099 0.809 1.169 0.809 0.41 0 0.859-0.105 1.123-0.38h0.020l0.086 0.275h1.057v-0.049c-0.191-0.039-0.205-0.226-0.198-0.528l0.020-1.277c0.007-0.324-0.026-1.045-1.539-1.045-0.363 0-1.532 0.033-1.578 1.007h0.958zM34.896 16.599c0 0.561-0.489 0.699-0.733 0.699-0.185 0-0.515-0.061-0.515-0.325 0-0.314 0.376-0.374 0.588-0.402 0.39-0.055 0.356-0.038 0.66-0.149v0.176z"></path>
<path fill="#60b238" style="fill: var(--color16, #60b238)" d="M36.005 15.521v-0.562h3.223v0.562h-1.109v2.234h-1.004v-2.234z"></path>
<path fill="#60b238" style="fill: var(--color16, #60b238)" d="M40.509 14.651h2.503v-0.748h-3.593v3.852h2.206c1.070 0 1.757-0.374 1.757-1.161 0-1.233-1.373-1.26-1.757-1.26h-1.116v-0.682zM40.509 16.082h0.904c0.265 0 0.793 0.028 0.793 0.49 0 0.363-0.383 0.435-0.812 0.435h-0.885v-0.924z"></path>
<path fill="#60b238" style="fill: var(--color16, #60b238)" d="M44.69 15.862c0-0.413 0.436-0.446 0.614-0.446 0.112 0 0.529 0.006 0.542 0.369 0 0.028 0 0.050 0 0.077-0.020 0.275-0.284 0.22-1.024 0.314-0.607 0.083-1.248 0.236-1.248 0.875 0 0.231 0.099 0.809 1.169 0.809 0.409 0 0.859-0.105 1.123-0.38h0.020l0.086 0.275h1.057v-0.049c-0.191-0.039-0.205-0.226-0.198-0.528l0.020-1.277c0.007-0.324-0.027-1.045-1.539-1.045-0.363 0-1.532 0.033-1.578 1.007h0.958zM45.852 16.599c0 0.561-0.489 0.699-0.733 0.699-0.185 0-0.515-0.061-0.515-0.325 0-0.314 0.376-0.374 0.587-0.402 0.39-0.055 0.357-0.038 0.661-0.149v0.176z"></path>
<path fill="#60b238" style="fill: var(--color16, #60b238)" d="M48.282 17.755h-1.004v-2.796h1.004v1.051h1.209v-1.051h1.004v2.796h-1.004v-1.183h-1.209z"></path>
<path fill="#60b238" style="fill: var(--color16, #60b238)" d="M53.031 14.959h1.116l-1.38 1.31 1.446 1.486h-1.176l-1.083-1.222h-0.020v1.222h-1.004v-2.796h1.004v1.123h0.020z"></path>
<path fill="#373435" style="fill: var(--color17, #373435)" d="M10.005 17.765h2.514v-2.514h-2.514z"></path>
<path fill="#60b238" style="fill: var(--color16, #60b238)" d="M15.11 12.664c0 0.855 0 2.917 0 3.772-0.239 0-0.281 0-0.513 0-0.221-1.865-1.394-3.037-3.259-3.259 0-0.232 0-0.274 0-0.513 0.855 0 2.917 0 3.772 0zM10.008 11.335v3.13h0.665c1.75 0 2.637 0.887 2.637 2.636v0.665h3.129v-6.431h-6.431z"></path>
</symbol>
<symbol id="icon-nova" viewBox="0 0 32 32">
<path fill="#ed1c24" style="fill: var(--color18, #ed1c24)" d="M14.524 13.201c0 0 0 0 0.499 0 0.183 0 0.273 0.090 0.273 0.294 0 0 0 0 0 0.717 0 0 0 0 0.977 0 0 0 0 0 0-0.717 0-0.205 0.090-0.294 0.294-0.294 0 0 0 0 0.478 0 0 0 0 0 0 0.474 0 0 0 0-0.205 0 0 0-0.021 0.021-0.021 0.021s0 0 0 2.022c0 0 0 0-0.546 0 0 0 0 0 0-1.011 0 0 0 0-0.977 0 0 0 0 0 0 1.011 0 0 0 0-0.546 0 0 0 0 0 0-2.022 0 0 0-0.021-0.021-0.021 0 0 0 0-0.205 0 0 0 0 0 0-0.474v0z"></path>
<path fill="#ed1c24" style="fill: var(--color18, #ed1c24)" d="M18.475 13.158h0.013v0.521l-0.013-0.004c-0.41 0-0.725 0.337-0.725 0.764 0 0.448 0.316 0.811 0.725 0.811l0.013-0.004v0.516l-0.013 0.004c-0.725 0-1.318-0.585-1.318-1.327 0-0.717 0.593-1.28 1.318-1.28v0z"></path>
<path fill="#ed1c24" style="fill: var(--color18, #ed1c24)" d="M18.487 13.158l0.252 0.026c0.602 0.115 1.054 0.627 1.054 1.254 0 0.649-0.452 1.178-1.054 1.297l-0.252 0.026v-0.516l0.277-0.060c0.269-0.124 0.461-0.41 0.461-0.747 0-0.32-0.192-0.589-0.461-0.704l-0.277-0.055v-0.521z"></path>
<path fill="#ed1c24" style="fill: var(--color18, #ed1c24)" d="M19.904 13.201c0 0 0 0 0.764 0h0.363v0.474h-0.034c-0.047 0-0.137 0-0.32 0 0 0 0 0 0 0.516 0 0 0 0 0.154 0h0.201v0.448h-0.115c-0.060 0-0.137 0-0.239 0 0 0 0 0 0 0.563 0 0.021 0 0.021 0.026 0.021 0 0 0 0 0.162 0h0.166v0.495h-0.047c-0.085 0-0.247 0-0.576 0-0.183 0-0.273-0.090-0.273-0.29v-1.754c0 0 0 0-0.23 0 0 0 0 0 0-0.474v0z"></path>
<path fill="#ed1c24" style="fill: var(--color18, #ed1c24)" d="M21.030 13.201h0.009c0.503 0 0.798 0.273 0.798 0.678 0 0.243-0.115 0.401-0.226 0.516 0.205 0.090 0.337 0.311 0.337 0.559 0 0.474-0.363 0.764-0.883 0.764 0 0 0 0-0.009 0h-0.026v-0.495h0.055c0.183 0 0.294-0.111 0.294-0.29s-0.111-0.294-0.294-0.294c0 0 0 0-0.051 0h-0.004v-0.448h0.009c0.162 0 0.252-0.111 0.252-0.269s-0.090-0.247-0.252-0.247c0 0 0 0-0.004 0h-0.004v-0.474z"></path>
<path fill="#ed1c24" style="fill: var(--color18, #ed1c24)" d="M22.993 13.201c0 0 0 0 0.23 0h0.043v0.721c-0.021 0.047-0.047 0.111-0.047 0.179 0 0 0 0-0.179 0.516 0 0 0 0 0.192 0h0.034v0.474h-0.124c-0.068 0-0.149 0-0.239 0 0 0 0 0-0.158 0.405-0.047 0.154-0.137 0.222-0.32 0.222 0 0 0 0-0.341 0 0 0 0 0 0-0.495 0 0 0 0 0.115 0 0.047 0 0.047 0 0.068-0.021 0 0 0 0 0.725-2.001v0z"></path>
<path fill="#ed1c24" style="fill: var(--color18, #ed1c24)" d="M23.266 13.201h0.273c0 0 0 0 0.725 2.001 0.021 0.021 0.021 0.021 0.068 0.021 0 0 0 0 0.090 0 0 0 0 0 0 0.495 0 0 0 0-0.316 0-0.183 0-0.273-0.068-0.32-0.247 0 0 0 0-0.158-0.38 0 0 0 0-0.307 0h-0.055v-0.474h0.226c0 0 0 0-0.179-0.516 0-0.068-0.026-0.132-0.047-0.179v-0.721z"></path>
<path fill="#ed1c24" style="fill: var(--color18, #ed1c24)" d="M14.524 16.435c0 0 0 0 1.975 0 0.183 0 0.294 0.094 0.294 0.294 0 0 0 0 0 1.707 0 0.021 0 0.021 0.026 0.021 0 0 0 0 0.179 0 0 0 0 0 0 0.495 0 0 0 0-0.474 0-0.205 0-0.299-0.090-0.299-0.29 0 0 0 0 0-1.728 0 0 0-0.026-0.021-0.026 0 0 0 0-0.909 0 0 0 0 0 0 2.044 0 0 0 0-0.546 0 0 0 0 0 0-2.044 0 0 0 0-0.226 0 0 0 0 0 0-0.474z"></path>
<path fill="#ed1c24" style="fill: var(--color18, #ed1c24)" d="M18.432 16.393h0.009v0.521l-0.009-0.004c-0.414 0-0.73 0.337-0.73 0.764 0 0.448 0.316 0.811 0.73 0.811l0.009-0.004v0.516l-0.009 0.004c-0.73 0-1.297-0.585-1.297-1.327 0-0.717 0.567-1.28 1.297-1.28v0z"></path>
<path fill="#ed1c24" style="fill: var(--color18, #ed1c24)" d="M18.441 16.393l0.26 0.026c0.61 0.115 1.045 0.627 1.045 1.254 0 0.649-0.435 1.178-1.045 1.297l-0.26 0.026v-0.516l0.29-0.060c0.269-0.124 0.448-0.41 0.448-0.747 0-0.32-0.179-0.589-0.448-0.704l-0.29-0.055v-0.521z"></path>
<path fill="#ed1c24" style="fill: var(--color18, #ed1c24)" d="M19.861 16.435c0 0 0 0 0.499 0 0.183 0 0.273 0.094 0.273 0.294 0 0 0 0 0 1.707 0 0.021 0 0.021 0.021 0.021 0 0 0 0 0.657 0 0 0 0 0 0-2.022 0 0 0 0 0.546 0 0 0 0 0 0 2.022 0 0 0 0 0.661 0 0.021 0 0.021 0 0.021-0.021 0 0 0 0 0-1.707 0-0.201 0.090-0.294 0.273-0.294 0 0 0 0 0.499 0 0 0 0 0 0 0.474 0 0 0 0-0.205 0-0.026 0-0.026 0.026-0.026 0.026s0 0 0 1.728c0 0.201-0.090 0.29-0.269 0.29 0 0 0 0-2.432 0-0.205 0-0.294-0.090-0.294-0.29 0 0 0 0 0-1.728 0 0 0-0.026-0.021-0.026 0 0 0 0-0.205 0 0 0 0 0 0-0.474v0z"></path>
<path fill="#ed1c24" style="fill: var(--color18, #ed1c24)" d="M23.744 16.435c0 0 0 0 1.702 0 0.205 0 0.273 0.094 0.273 0.273 0 0 0 0 0 0.427h-0.499c0 0 0 0 0-0.201 0-0.026 0-0.026-0.026-0.026 0 0 0 0-0.316 0 0 0 0 0 0 2.044 0 0 0 0-0.546 0 0 0 0 0 0-2.044 0 0 0 0-0.316 0-0.026 0-0.026 0-0.026 0.026 0 0 0 0 0 0.201 0 0 0 0-0.499 0 0 0 0 0 0-0.427 0-0.179 0.068-0.273 0.252-0.273z"></path>
<path fill="#ed1c24" style="fill: var(--color18, #ed1c24)" d="M26.423 16.435c0 0 0 0 0.23 0h0.043v0.721c-0.026 0.047-0.047 0.111-0.047 0.179 0 0 0 0-0.183 0.516 0 0 0 0 0.192 0h0.038v0.474h-0.124c-0.073 0-0.149 0-0.243 0 0 0 0 0-0.158 0.38-0.043 0.179-0.137 0.247-0.316 0.247 0 0 0 0-0.341 0 0 0 0 0 0-0.495 0 0 0 0 0.115 0 0.043 0 0.043 0 0.068-0.021 0 0 0 0 0.725-1.997v-0.004z"></path>
<path fill="#ed1c24" style="fill: var(--color18, #ed1c24)" d="M26.697 16.435h0.269c0 0 0 0 0.73 2.001 0.021 0.021 0.021 0.021 0.068 0.021h0.090c0 0 0 0 0 0.495 0 0 0 0-0.316 0-0.183 0-0.273-0.068-0.32-0.247 0 0 0 0-0.158-0.38 0 0 0 0-0.307 0h-0.055v-0.474h0.226c0 0 0 0-0.183-0.516 0-0.068-0.021-0.132-0.043-0.179v-0.721z"></path>
<path fill="#ed1c24" style="fill: var(--color18, #ed1c24)" d="M11.025 14.272c0.026-0.009 0.060 0.009 0.094 0.055 0 0 0 0 1.545 1.502 0.090 0.090 0.090 0.226 0 0.294 0 0 0 0-1.545 1.527-0.034 0.043-0.068 0.055-0.094 0.043s-0.043-0.055-0.043-0.111v-3.213c0-0.055 0.017-0.090 0.043-0.098z"></path>
<path fill="#ed1c24" style="fill: var(--color18, #ed1c24)" d="M8.384 11.767h0.111l0.102 0.043c0 0 0 0 1.591 1.574 0.068 0.090 0.043 0.154-0.068 0.154 0 0 0 0-0.661 0-0.111 0-0.205 0.094-0.205 0.205 0 0 0 0 0 1.169 0 0.111-0.090 0.201-0.226 0.201 0 0 0 0-1.156 0-0.115 0-0.205-0.090-0.205-0.201 0 0 0 0 0-1.169 0-0.111-0.090-0.205-0.205-0.205h-0.704c-0.115 0-0.137-0.064-0.068-0.154 0 0 0 0 1.591-1.574l0.102-0.043z"></path>
<path fill="#ed1c24" style="fill: var(--color18, #ed1c24)" d="M5.897 14.238c0.026 0.017 0.043 0.055 0.043 0.111v3.277c0 0.060-0.017 0.094-0.043 0.102-0.030 0.013-0.068 0-0.115-0.034 0 0 0 0-1.566-1.57-0.090-0.068-0.090-0.205 0-0.294 0 0 0 0 1.566-1.549 0.047-0.043 0.085-0.055 0.115-0.043v0z"></path>
<path fill="#ed1c24" style="fill: var(--color18, #ed1c24)" d="M7.872 16.819c0 0 0 0 1.156 0 0.137 0 0.23 0.090 0.23 0.205 0 0 0 0 0 1.233 0 0.137 0.090 0.226 0.201 0.226h0.614c0.115 0 0.158 0.064 0.068 0.132 0 0 0 0-1.545 1.549-0.047 0.047-0.102 0.068-0.158 0.068s-0.115-0.021-0.158-0.068c0 0 0 0-1.545-1.549-0.094-0.068-0.047-0.132 0.064-0.132 0 0 0 0 0.661 0 0.115 0 0.205-0.090 0.205-0.226 0 0 0 0 0-1.233 0-0.115 0.090-0.205 0.205-0.205v0z"></path>
</symbol>
<symbol id="icon-wallet3" viewBox="0 0 32 32">
<path stroke-linejoin="round" stroke-linecap="round" stroke-miterlimit="4" stroke-width="2" d="M24.053 18.067c-0.56 0.547-0.88 1.333-0.8 2.173 0.12 1.44 1.44 2.493 2.88 2.493h2.533v1.587c0 2.76-2.253 5.013-5.013 5.013h-13.48c0.413-0.347 0.773-0.773 1.053-1.253 0.493-0.8 0.773-1.747 0.773-2.747 0-2.947-2.387-5.333-5.333-5.333-1.253 0-2.413 0.44-3.333 1.173v-5.827c0-2.76 2.253-5.013 5.013-5.013h15.307c2.76 0 5.013 2.253 5.013 5.013v1.92h-2.693c-0.747 0-1.427 0.293-1.92 0.8z"></path>
<path stroke-linejoin="round" stroke-linecap="round" stroke-miterlimit="4" stroke-width="2" d="M3.333 16.547v-6.093c0-1.587 0.973-3 2.453-3.56l10.587-4c1.653-0.627 3.427 0.6 3.427 2.373v5.067"></path>
<path stroke-linejoin="round" stroke-linecap="round" stroke-miterlimit="4" stroke-width="2" d="M30.078 18.627v2.747c0 0.733-0.587 1.333-1.333 1.36h-2.613c-1.44 0-2.76-1.053-2.88-2.493-0.080-0.84 0.24-1.627 0.8-2.173 0.493-0.507 1.173-0.8 1.92-0.8h2.773c0.747 0.027 1.333 0.627 1.333 1.36z"></path>
<path stroke-linejoin="round" stroke-linecap="round" stroke-miterlimit="4" stroke-width="2" d="M9.333 16h9.333"></path>
<path stroke-linejoin="round" stroke-linecap="round" stroke-miterlimit="10" stroke-width="2" d="M12 25.333c0 1-0.28 1.947-0.773 2.747-0.28 0.48-0.64 0.907-1.053 1.253-0.933 0.84-2.16 1.333-3.507 1.333-1.947 0-3.64-1.040-4.56-2.587-0.493-0.8-0.773-1.747-0.773-2.747 0-1.68 0.773-3.187 2-4.16 0.92-0.733 2.080-1.173 3.333-1.173 2.947 0 5.333 2.387 5.333 5.333z"></path>
<path stroke-linejoin="round" stroke-linecap="round" stroke-miterlimit="4" stroke-width="2" d="M4.589 25.333l1.32 1.32 2.84-2.627"></path>
</symbol>
<symbol id="icon-quality2" viewBox="0 0 32 32">
<path stroke-linejoin="round" stroke-linecap="round" stroke-miterlimit="4" stroke-width="2" d="M21.667 4.587c2.227 1.707 3.667 4.387 3.667 7.413 0 1.933-0.573 3.707-1.56 5.187-1.44 2.133-3.72 3.64-6.373 4.027-0.453 0.080-0.92 0.12-1.4 0.12s-0.947-0.040-1.4-0.12c-2.653-0.387-4.933-1.893-6.373-4.027-0.987-1.48-1.56-3.253-1.56-5.187 0-5.16 4.173-9.333 9.333-9.333"></path>
<path stroke-linejoin="round" stroke-linecap="round" stroke-miterlimit="4" stroke-width="2" d="M28.333 24.627l-2.2 0.52c-0.493 0.12-0.88 0.493-0.987 0.987l-0.467 1.96c-0.253 1.067-1.613 1.387-2.32 0.547l-6.36-7.307-6.36 7.32c-0.707 0.84-2.067 0.52-2.32-0.547l-0.467-1.96c-0.12-0.493-0.507-0.88-0.987-0.987l-2.2-0.52c-1.013-0.24-1.373-1.507-0.64-2.24l5.2-5.2c1.44 2.133 3.72 3.64 6.373 4.027 0.453 0.080 0.92 0.12 1.4 0.12s0.947-0.040 1.4-0.12c2.653-0.387 4.933-1.893 6.373-4.027l5.2 5.2c0.733 0.72 0.373 1.987-0.64 2.227z"></path>
<path stroke-linejoin="round" stroke-linecap="round" stroke-miterlimit="4" stroke-width="2" d="M16.773 7.973l0.787 1.573c0.107 0.213 0.387 0.427 0.64 0.467l1.427 0.24c0.907 0.147 1.12 0.813 0.467 1.467l-1.107 1.107c-0.187 0.187-0.293 0.547-0.227 0.813l0.32 1.373c0.253 1.080-0.32 1.507-1.28 0.933l-1.333-0.787c-0.24-0.147-0.64-0.147-0.88 0l-1.333 0.787c-0.96 0.56-1.533 0.147-1.28-0.933l0.32-1.373c0.053-0.253-0.040-0.627-0.227-0.813l-1.107-1.107c-0.653-0.653-0.44-1.307 0.467-1.467l1.427-0.24c0.24-0.040 0.52-0.253 0.627-0.467l0.787-1.573c0.387-0.853 1.080-0.853 1.507 0z"></path>
</symbol>
<symbol id="icon-quality3" viewBox="0 0 32 32">
<path d="M28.333 24.627l-2.2 0.52c-0.493 0.12-0.88 0.493-0.987 0.987l-0.467 1.96c-0.253 1.067-1.613 1.4-2.32 0.56l-3.987-4.587c-0.32-0.373-0.147-0.96 0.333-1.080 2.36-0.573 4.48-1.893 6.040-3.773 0.253-0.307 0.707-0.347 0.987-0.067l2.96 2.96c1.013 1.013 0.653 2.28-0.36 2.52z"></path>
<path d="M3.6 24.627l2.2 0.52c0.493 0.12 0.88 0.493 0.987 0.987l0.467 1.96c0.253 1.067 1.613 1.4 2.32 0.56l3.987-4.587c0.32-0.373 0.147-0.96-0.333-1.080-2.36-0.573-4.48-1.893-6.040-3.773-0.253-0.307-0.707-0.347-0.987-0.067l-2.96 2.96c-1.013 1.013-0.653 2.28 0.36 2.52z"></path>
<path d="M16 2.667c-5.16 0-9.333 4.173-9.333 9.333 0 1.933 0.573 3.707 1.56 5.187 1.44 2.133 3.72 3.64 6.373 4.027 0.453 0.080 0.92 0.12 1.4 0.12s0.947-0.040 1.4-0.12c2.653-0.387 4.933-1.893 6.373-4.027 0.987-1.48 1.56-3.253 1.56-5.187 0-5.16-4.173-9.333-9.333-9.333zM20.080 11.707l-1.107 1.107c-0.187 0.187-0.293 0.547-0.227 0.813l0.32 1.373c0.253 1.080-0.32 1.507-1.28 0.933l-1.333-0.787c-0.24-0.147-0.64-0.147-0.88 0l-1.333 0.787c-0.96 0.56-1.533 0.147-1.28-0.933l0.32-1.373c0.053-0.253-0.040-0.627-0.227-0.813l-1.133-1.107c-0.653-0.653-0.44-1.307 0.467-1.453l1.427-0.24c0.24-0.040 0.52-0.253 0.627-0.467l0.787-1.573c0.427-0.853 1.12-0.853 1.547 0l0.787 1.573c0.107 0.213 0.387 0.427 0.64 0.467l1.427 0.24c0.893 0.147 1.107 0.8 0.453 1.453z"></path>
</symbol>
<symbol id="icon-wallet2" viewBox="0 0 32 32">
<path fill="none" stroke="#292d32" style="stroke: var(--color19, #292d32)" stroke-linejoin="round" stroke-linecap="round" stroke-miterlimit="4" stroke-width="2" d="M24.053 18.067c-0.56 0.547-0.88 1.333-0.8 2.173 0.12 1.44 1.44 2.493 2.88 2.493h2.533v1.587c0 2.76-2.253 5.013-5.013 5.013h-13.48c0.413-0.347 0.773-0.773 1.053-1.253 0.493-0.8 0.773-1.747 0.773-2.747 0-2.947-2.387-5.333-5.333-5.333-1.253 0-2.413 0.44-3.333 1.173v-5.827c0-2.76 2.253-5.013 5.013-5.013h15.307c2.76 0 5.013 2.253 5.013 5.013v1.92h-2.693c-0.747 0-1.427 0.293-1.92 0.8z"></path>
<path fill="none" opacity="0.4" stroke="#292d32" style="stroke: var(--color19, #292d32)" stroke-linejoin="round" stroke-linecap="round" stroke-miterlimit="4" stroke-width="2" d="M3.333 16.547v-6.093c0-1.587 0.973-3 2.453-3.56l10.587-4c1.653-0.627 3.427 0.6 3.427 2.373v5.067"></path>
<path fill="none" stroke="#292d32" style="stroke: var(--color19, #292d32)" stroke-linejoin="round" stroke-linecap="round" stroke-miterlimit="4" stroke-width="2" d="M30.080 18.627v2.747c0 0.733-0.587 1.333-1.333 1.36h-2.613c-1.44 0-2.76-1.053-2.88-2.493-0.080-0.84 0.24-1.627 0.8-2.173 0.493-0.507 1.173-0.8 1.92-0.8h2.773c0.747 0.027 1.333 0.627 1.333 1.36z"></path>
<path fill="none" opacity="0.4" stroke="#292d32" style="stroke: var(--color19, #292d32)" stroke-linejoin="round" stroke-linecap="round" stroke-miterlimit="4" stroke-width="2" d="M9.333 16h9.333"></path>
<path fill="none" stroke="#292d32" style="stroke: var(--color19, #292d32)" stroke-linejoin="round" stroke-linecap="round" stroke-miterlimit="10" stroke-width="2" d="M12 25.333c0 1-0.28 1.947-0.773 2.747-0.28 0.48-0.64 0.907-1.053 1.253-0.933 0.84-2.16 1.333-3.507 1.333-1.947 0-3.64-1.040-4.56-2.587-0.493-0.8-0.773-1.747-0.773-2.747 0-1.68 0.773-3.187 2-4.16 0.92-0.733 2.080-1.173 3.333-1.173 2.947 0 5.333 2.387 5.333 5.333z"></path>
<path fill="none" stroke="#292d32" style="stroke: var(--color19, #292d32)" stroke-linejoin="round" stroke-linecap="round" stroke-miterlimit="4" stroke-width="2" d="M4.587 25.333l1.32 1.32 2.84-2.627"></path>
</symbol>
<symbol id="icon-econ" viewBox="0 0 32 32">
<path d="M9.56 30.333c-3.173 0-5.773-2.307-5.773-5.147v-2.72c0-0.547 0.453-1 1-1s1 0.453 1 1c0 1.667 1.613 2.92 3.773 2.92s3.773-1.253 3.773-2.92c0-0.547 0.453-1 1-1s1 0.453 1 1v2.72c0 2.84-2.587 5.147-5.773 5.147zM6.133 26.493c0.587 1.093 1.907 1.84 3.427 1.84s2.84-0.76 3.427-1.84c-0.947 0.573-2.12 0.907-3.427 0.907s-2.48-0.333-3.427-0.907z"></path>
<path d="M9.56 23.733c-2.187 0-4.147-1-5.12-2.587-0.427-0.693-0.653-1.507-0.653-2.333 0-1.4 0.613-2.707 1.733-3.68 2.16-1.893 5.88-1.893 8.053-0.013 1.12 0.987 1.747 2.293 1.747 3.693 0 0.827-0.227 1.64-0.653 2.333-0.96 1.587-2.92 2.587-5.107 2.587zM9.56 15.667c-1.040 0-2 0.347-2.72 0.973-0.68 0.587-1.053 1.36-1.053 2.173 0 0.467 0.12 0.893 0.36 1.293 0.613 1.013 1.92 1.64 3.413 1.64s2.8-0.627 3.4-1.627c0.24-0.387 0.36-0.827 0.36-1.293 0-0.813-0.373-1.587-1.053-2.187-0.707-0.627-1.667-0.973-2.707-0.973z"></path>
<path d="M9.56 27.4c-3.293 0-5.773-2.12-5.773-4.92v-3.667c0-2.84 2.587-5.147 5.773-5.147 1.507 0 2.947 0.52 4.027 1.453 1.12 0.987 1.747 2.293 1.747 3.693v3.667c0 2.8-2.48 4.92-5.773 4.92zM9.56 15.667c-2.080 0-3.773 1.413-3.773 3.147v3.667c0 1.667 1.613 2.92 3.773 2.92s3.773-1.253 3.773-2.92v-3.667c0-0.813-0.373-1.587-1.053-2.187-0.72-0.613-1.68-0.96-2.72-0.96z"></path>
<path d="M25.387 19.733c-2.013 0-3.72-1.493-3.88-3.413-0.107-1.107 0.293-2.187 1.093-2.973 0.667-0.693 1.613-1.080 2.613-1.080h2.787c1.32 0.040 2.333 1.080 2.333 2.36v2.747c0 1.28-1.013 2.32-2.293 2.36h-2.653zM27.96 14.267h-2.733c-0.467 0-0.893 0.173-1.2 0.493-0.387 0.373-0.573 0.88-0.52 1.387 0.067 0.88 0.92 1.587 1.88 1.587h2.613c0.173 0 0.333-0.16 0.333-0.36v-2.747c0-0.2-0.16-0.347-0.373-0.36z"></path>
<path d="M21.334 28.333h-3.333c-0.547 0-1-0.453-1-1s0.453-1 1-1h3.333c3.44 0 5.667-2.227 5.667-5.667v-0.933h-1.613c-2.013 0-3.72-1.493-3.88-3.413-0.107-1.107 0.293-2.187 1.093-2.973 0.667-0.693 1.613-1.080 2.613-1.080h1.773v-0.933c0-3.12-1.827-5.267-4.787-5.613-0.32-0.053-0.6-0.053-0.88-0.053h-12c-0.32 0-0.627 0.027-0.933 0.067-2.933 0.373-4.733 2.507-4.733 5.6v2.667c0 0.547-0.453 1-1 1s-1-0.453-1-1v-2.667c0-4.107 2.533-7.080 6.467-7.573 0.36-0.053 0.773-0.093 1.2-0.093h12c0.32 0 0.733 0.013 1.16 0.080 3.933 0.453 6.507 3.44 6.507 7.587v1.933c0 0.547-0.453 1-1 1h-2.773c-0.467 0-0.893 0.173-1.2 0.493-0.387 0.373-0.573 0.88-0.52 1.387 0.067 0.88 0.92 1.587 1.88 1.587h2.627c0.547 0 1 0.453 1 1v1.933c0 4.587-3.080 7.667-7.667 7.667z"></path>
</symbol>
<symbol id="icon-price" viewBox="0 0 32 32">
<path stroke-linejoin="round" stroke-linecap="round" stroke-miterlimit="4" stroke-width="2" d="M16.881 3.358l-0.040 0.093-3.867 8.973h-3.8c-0.907 0-1.773 0.187-2.56 0.52l2.333-5.573 0.053-0.133 0.093-0.213c0.027-0.080 0.053-0.16 0.093-0.227 1.747-4.040 3.72-4.96 7.693-3.44z"></path>
<path stroke-linejoin="round" stroke-linecap="round" stroke-miterlimit="4" stroke-width="2" d="M24.067 12.691c-0.6-0.187-1.24-0.267-1.88-0.267h-9.213l3.907-9.067c0.2 0.067 0.387 0.16 0.587 0.24l2.947 1.24c1.64 0.68 2.787 1.387 3.48 2.24 0.133 0.16 0.24 0.307 0.333 0.48 0.12 0.187 0.213 0.373 0.267 0.573 0.053 0.12 0.093 0.24 0.12 0.347 0.36 1.12 0.147 2.493-0.547 4.213z"></path>
<path stroke-linejoin="round" stroke-linecap="round" stroke-miterlimit="4" stroke-width="2" d="M28.696 18.931v2.6c0 0.267-0.013 0.533-0.027 0.8-0.253 4.653-2.853 7-7.787 7h-10.4c-0.32 0-0.64-0.027-0.947-0.067-4.24-0.28-6.507-2.547-6.787-6.787-0.040-0.307-0.067-0.627-0.067-0.947v-2.6c0-2.68 1.627-4.987 3.947-5.987 0.8-0.333 1.653-0.52 2.56-0.52h13.013c0.653 0 1.293 0.093 1.88 0.267 2.653 0.813 4.613 3.293 4.613 6.24z"></path>
<path stroke-linejoin="round" stroke-linecap="round" stroke-miterlimit="4" stroke-width="2" d="M8.947 7.371l-2.333 5.573c-2.32 1-3.947 3.307-3.947 5.987v-3.907c0-3.787 2.693-6.947 6.28-7.653z"></path>
<path stroke-linejoin="round" stroke-linecap="round" stroke-miterlimit="4" stroke-width="2" d="M28.692 15.024v3.907c0-2.933-1.947-5.427-4.613-6.227 0.693-1.733 0.893-3.093 0.56-4.227-0.027-0.12-0.067-0.24-0.12-0.347 2.48 1.28 4.173 3.907 4.173 6.893z"></path>
</symbol>
<symbol id="icon-sec" viewBox="0 0 32 32">
<path stroke-linejoin="round" stroke-linecap="round" stroke-miterlimit="4" stroke-width="2" d="M27.88 14.827c0 6.52-4.733 12.627-11.2 14.413-0.44 0.12-0.92 0.12-1.36 0-6.467-1.787-11.2-7.893-11.2-14.413v-5.853c0-1.093 0.827-2.333 1.853-2.747l7.427-3.040c1.667-0.68 3.547-0.68 5.213 0l7.427 3.040c1.013 0.413 1.853 1.653 1.853 2.747l-0.013 5.853z"></path>
<path stroke-linejoin="round" stroke-linecap="round" stroke-miterlimit="10" stroke-width="2" d="M16 16.667c1.473 0 2.667-1.194 2.667-2.667s-1.194-2.667-2.667-2.667-2.667 1.194-2.667 2.667c0 1.473 1.194 2.667 2.667 2.667z"></path>
<path stroke-linejoin="round" stroke-linecap="round" stroke-miterlimit="10" stroke-width="2" d="M16 16.667v4"></path>
</symbol>
<symbol id="icon-quality" viewBox="0 0 32 32">
<path stroke-linejoin="round" stroke-linecap="round" stroke-miterlimit="4" stroke-width="2" d="M25.333 12c0 1.933-0.573 3.707-1.56 5.187-1.44 2.133-3.72 3.64-6.373 4.027-0.453 0.080-0.92 0.12-1.4 0.12s-0.947-0.040-1.4-0.12c-2.653-0.387-4.933-1.893-6.373-4.027-0.987-1.48-1.56-3.253-1.56-5.187 0-5.16 4.173-9.333 9.333-9.333s9.333 4.173 9.333 9.333z"></path>
<path stroke-linejoin="round" stroke-linecap="round" stroke-miterlimit="4" stroke-width="2" d="M28.333 24.627l-2.2 0.52c-0.493 0.12-0.88 0.493-0.987 0.987l-0.467 1.96c-0.253 1.067-1.613 1.387-2.32 0.547l-6.36-7.307-6.36 7.32c-0.707 0.84-2.067 0.52-2.32-0.547l-0.467-1.96c-0.12-0.493-0.507-0.88-0.987-0.987l-2.2-0.52c-1.013-0.24-1.373-1.507-0.64-2.24l5.2-5.2c1.44 2.133 3.72 3.64 6.373 4.027 0.453 0.080 0.92 0.12 1.4 0.12s0.947-0.040 1.4-0.12c2.653-0.387 4.933-1.893 6.373-4.027l5.2 5.2c0.733 0.72 0.373 1.987-0.64 2.227z"></path>
<path stroke-linejoin="round" stroke-linecap="round" stroke-miterlimit="4" stroke-width="2" d="M16.773 7.973l0.787 1.573c0.107 0.213 0.387 0.427 0.64 0.467l1.427 0.24c0.907 0.147 1.12 0.813 0.467 1.467l-1.107 1.107c-0.187 0.187-0.293 0.547-0.227 0.813l0.32 1.373c0.253 1.080-0.32 1.507-1.28 0.933l-1.333-0.787c-0.24-0.147-0.64-0.147-0.88 0l-1.333 0.787c-0.96 0.56-1.533 0.147-1.28-0.933l0.32-1.373c0.053-0.253-0.040-0.627-0.227-0.813l-1.107-1.107c-0.653-0.653-0.44-1.307 0.467-1.467l1.427-0.24c0.24-0.040 0.52-0.253 0.627-0.467l0.787-1.573c0.387-0.853 1.080-0.853 1.507 0z"></path>
</symbol>
<symbol id="icon-pay" viewBox="0 0 32 32">
<path d="M29 4h-26c-1.65 0-3 1.35-3 3v18c0 1.65 1.35 3 3 3h26c1.65 0 3-1.35 3-3v-18c0-1.65-1.35-3-3-3zM3 6h26c0.542 0 1 0.458 1 1v3h-28v-3c0-0.542 0.458-1 1-1zM29 26h-26c-0.542 0-1-0.458-1-1v-9h28v9c0 0.542-0.458 1-1 1zM4 20h2v4h-2zM8 20h2v4h-2zM12 20h2v4h-2z"></path>
</symbol>
<symbol id="icon-time" viewBox="0 0 32 32">
<path d="M16 6.038v-2.038h4v-2c0-1.105-0.895-2-2-2h-6c-1.105 0-2 0.895-2 2v2h4v2.038c-6.712 0.511-12 6.119-12 12.962 0 7.18 5.82 13 13 13s13-5.82 13-13c0-6.843-5.288-12.451-12-12.962zM22.071 26.071c-1.889 1.889-4.4 2.929-7.071 2.929s-5.182-1.040-7.071-2.929c-1.889-1.889-2.929-4.4-2.929-7.071s1.040-5.182 2.929-7.071c1.814-1.814 4.201-2.844 6.754-2.923l-0.677 9.813c-0.058 0.822 0.389 1.181 0.995 1.181s1.053-0.36 0.995-1.181l-0.677-9.813c2.552 0.079 4.94 1.11 6.754 2.923 1.889 1.889 2.929 4.4 2.929 7.071s-1.040 5.182-2.929 7.071z"></path>
</symbol>
<symbol id="icon-secur" viewBox="0 0 32 32">
<path d="M30 0l-14 4-14-4c0 0-0.141 1.616 0 4l14 4.378 14-4.378c0.141-2.384 0-4 0-4zM2.256 6.097c0.75 7.834 3.547 21.007 13.744 25.903 10.197-4.896 12.995-18.069 13.744-25.903l-13.744 5.167-13.744-5.167z"></path>
</symbol>
<symbol id="icon-shield1" viewBox="0 0 20 20">
<path d="M19 11c-0.142 2.503-1.491 4.664-3.47 5.922l-0.030 0.018-5.5 3.060-5.5-3.060c-2.009-1.276-3.358-3.437-3.499-5.92l-0.001-0.020v-8c3.38 0 6.5-1.12 9-3 2.5 1.89 5.62 3 9 3v8zM10 12.080l2.92 2.040-1.030-3.41 2.84-2.15-3.56-0.080-1.17-3.36-1.17 3.36-3.56 0.080 2.83 2.14-1.030 3.4 2.93-2.010z"></path>
</symbol>
<symbol id="icon-wallet" viewBox="0 0 20 20">
<path d="M0 4c0-1.1 0.9-2 2-2h15c0.552 0 1 0.448 1 1v0 1h-16v1h17c0.552 0 1 0.448 1 1v0 10c0 1.105-0.895 2-2 2v0h-16c-1.105 0-2-0.895-2-2v0-12zM16.5 13c0.828 0 1.5-0.672 1.5-1.5s-0.672-1.5-1.5-1.5v0c-0.828 0-1.5 0.672-1.5 1.5s0.672 1.5 1.5 1.5v0z"></path>
</symbol>
<symbol id="icon-nvidia" viewBox="0 0 32 32">
<path fill="#76b900" style="fill: var(--color20, #76b900)" d="M11.931 11.731v-1.907c0.165-0.013 0.362-0.022 0.56-0.024l0.005-0c5.229-0.165 8.657 4.499 8.657 4.499s-3.699 5.135-7.667 5.135c-0.531 0-1.049-0.083-1.544-0.247v-5.795c2.037 0.247 2.449 1.143 3.663 3.18l2.72-2.285c0 0-1.989-2.603-5.333-2.603-0.053-0.001-0.116-0.002-0.179-0.002-0.311 0-0.618 0.018-0.919 0.052l0.037-0.003zM11.931 5.417v2.851l0.565-0.036c7.267-0.247 12.013 5.96 12.013 5.96s-5.44 6.619-11.107 6.619c-0.493 0-0.977-0.047-1.46-0.129v1.767c0.4 0.047 0.813 0.083 1.213 0.083 5.276 0 9.093-2.697 12.791-5.877 0.612 0.495 3.12 1.684 3.64 2.203-3.511 2.944-11.696 5.312-16.337 5.312-0.447 0-0.871-0.024-1.295-0.071v2.485h20.045v-21.165zM11.931 19.185v1.508c-4.876-0.872-6.231-5.947-6.231-5.947s2.344-2.592 6.231-3.016v1.649h-0.011c-2.037-0.248-3.64 1.66-3.64 1.66s0.907 3.216 3.652 4.147zM3.275 14.533c0 0 2.885-4.263 8.667-4.711v-1.555c-6.404 0.519-11.941 5.936-11.941 5.936s3.133 9.069 11.931 9.893v-1.649c-6.453-0.8-8.656-7.915-8.656-7.915z"></path>
</symbol>
<symbol id="icon-ted" viewBox="0 0 32 32">
<path fill="#e62b1e" style="fill: var(--color21, #e62b1e)" d="M3.241 13.181h-3.241v-2.961h10.040v2.961h-3.24v8.6h-3.559zM10.593 10.22h9.747v2.961h-6.184v1.444h6.184v2.751h-6.184v1.44h6.184v2.967h-9.747zM24.5 18.821h1.395c2.219 0 2.543-1.803 2.543-2.888 0-0.727-0.239-2.751-2.82-2.751h-1.139v5.64zM20.94 10.22h5.845c3.855 0 5.215 2.847 5.215 5.76 0 3.547-1.879 5.801-5.912 5.801h-5.148v-11.564z"></path>
</symbol>
</defs>
</svg>
