<!-- Generated by IcoMoon.io -->
<svg version="1.1" xmlns="http://www.w3.org/2000/svg" width="81" height="32" viewBox="0 0 81 32">
<path fill="#5f6368" d="M38.113 15.635v9.377h-2.977v-23.163h7.892c1.904-0.040 3.743 0.682 5.111 2.005 1.384 1.246 2.164 3.028 2.133 4.888 0.041 1.873-0.739 3.669-2.133 4.918-1.381 1.316-3.085 1.975-5.111 1.971l-4.915 0.003zM38.113 4.702v8.088h4.989c1.107 0.034 2.174-0.402 2.943-1.198 1.563-1.519 1.6-4.020 0.078-5.583-0.027-0.027-0.051-0.054-0.078-0.078-0.76-0.814-1.833-1.259-2.943-1.229h-4.989zM57.131 8.648c2.201 0 3.936 0.587 5.208 1.762s1.907 2.788 1.907 4.834v9.769h-2.846v-2.201h-0.128c-1.232 1.813-2.873 2.717-4.918 2.717-1.745 0-3.207-0.516-4.381-1.553-1.141-0.962-1.789-2.386-1.762-3.882 0-1.64 0.621-2.943 1.86-3.912s2.893-1.455 4.965-1.455c1.765 0 3.224 0.324 4.365 0.969v-0.682c0.007-1.019-0.446-1.985-1.229-2.633-0.786-0.709-1.813-1.097-2.873-1.084-1.661 0-2.977 0.702-3.946 2.103l-2.619-1.651c1.438-2.069 3.571-3.102 6.397-3.102v0zM53.279 20.162c-0.003 0.77 0.365 1.492 0.986 1.941 0.658 0.516 1.475 0.793 2.312 0.776 1.256-0.003 2.461-0.503 3.349-1.391 0.986-0.928 1.478-2.015 1.478-3.267-0.928-0.739-2.221-1.111-3.882-1.111-1.208 0-2.218 0.29-3.024 0.874-0.813 0.594-1.219 1.313-1.219 2.177v0zM80.584 9.165l-9.934 22.835h-3.072l3.686-7.99-6.535-14.846h3.234l4.722 11.386h0.064l4.594-11.386h3.24z"></path>
<path fill="#4285f4" d="M26.086 13.61c0-0.908-0.074-1.813-0.23-2.707h-12.55v5.124h7.187c-0.297 1.654-1.256 3.116-2.657 4.044v3.328h4.29c2.511-2.312 3.959-5.738 3.959-9.789v0z"></path>
<path fill="#34a853" d="M13.306 26.616c3.592 0 6.616-1.178 8.82-3.213l-4.29-3.328c-1.195 0.81-2.731 1.273-4.53 1.273-3.47 0-6.417-2.339-7.47-5.492h-4.419v3.43c2.258 4.496 6.859 7.332 11.889 7.332z"></path>
<path fill="#fbbc04" d="M5.836 15.855c-0.557-1.651-0.557-3.443 0-5.094v-3.43h-4.419c-1.89 3.76-1.89 8.192 0 11.953l4.419-3.43z"></path>
<path fill="#ea4335" d="M13.306 5.269c1.897-0.030 3.73 0.685 5.104 1.995l3.801-3.797c-2.41-2.262-5.6-3.504-8.905-3.467-5.030 0-9.63 2.839-11.889 7.332l4.419 3.43c1.053-3.153 4-5.492 7.47-5.492z"></path>
</svg>
