<!-- Generated by IcoMoon.io -->
<svg version="1.1" xmlns="http://www.w3.org/2000/svg" width="32" height="32" viewBox="0 0 32 32">
<path fill="#ed1c24" d="M14.524 13.201c0 0 0 0 0.499 0 0.183 0 0.273 0.090 0.273 0.294 0 0 0 0 0 0.717 0 0 0 0 0.977 0 0 0 0 0 0-0.717 0-0.205 0.090-0.294 0.294-0.294 0 0 0 0 0.478 0 0 0 0 0 0 0.474 0 0 0 0-0.205 0 0 0-0.021 0.021-0.021 0.021s0 0 0 2.022c0 0 0 0-0.546 0 0 0 0 0 0-1.011 0 0 0 0-0.977 0 0 0 0 0 0 1.011 0 0 0 0-0.546 0 0 0 0 0 0-2.022 0 0 0-0.021-0.021-0.021 0 0 0 0-0.205 0 0 0 0 0 0-0.474v0z"></path>
<path fill="#ed1c24" d="M18.475 13.158h0.013v0.521l-0.013-0.004c-0.41 0-0.725 0.337-0.725 0.764 0 0.448 0.316 0.811 0.725 0.811l0.013-0.004v0.516l-0.013 0.004c-0.725 0-1.318-0.585-1.318-1.327 0-0.717 0.593-1.28 1.318-1.28v0z"></path>
<path fill="#ed1c24" d="M18.487 13.158l0.252 0.026c0.602 0.115 1.054 0.627 1.054 1.254 0 0.649-0.452 1.178-1.054 1.297l-0.252 0.026v-0.516l0.277-0.060c0.269-0.124 0.461-0.41 0.461-0.747 0-0.32-0.192-0.589-0.461-0.704l-0.277-0.055v-0.521z"></path>
<path fill="#ed1c24" d="M19.904 13.201c0 0 0 0 0.764 0h0.363v0.474h-0.034c-0.047 0-0.137 0-0.32 0 0 0 0 0 0 0.516 0 0 0 0 0.154 0h0.201v0.448h-0.115c-0.060 0-0.137 0-0.239 0 0 0 0 0 0 0.563 0 0.021 0 0.021 0.026 0.021 0 0 0 0 0.162 0h0.166v0.495h-0.047c-0.085 0-0.247 0-0.576 0-0.183 0-0.273-0.090-0.273-0.29v-1.754c0 0 0 0-0.23 0 0 0 0 0 0-0.474v0z"></path>
<path fill="#ed1c24" d="M21.030 13.201h0.009c0.503 0 0.798 0.273 0.798 0.678 0 0.243-0.115 0.401-0.226 0.516 0.205 0.090 0.337 0.311 0.337 0.559 0 0.474-0.363 0.764-0.883 0.764 0 0 0 0-0.009 0h-0.026v-0.495h0.055c0.183 0 0.294-0.111 0.294-0.29s-0.111-0.294-0.294-0.294c0 0 0 0-0.051 0h-0.004v-0.448h0.009c0.162 0 0.252-0.111 0.252-0.269s-0.090-0.247-0.252-0.247c0 0 0 0-0.004 0h-0.004v-0.474z"></path>
<path fill="#ed1c24" d="M22.993 13.201c0 0 0 0 0.23 0h0.043v0.721c-0.021 0.047-0.047 0.111-0.047 0.179 0 0 0 0-0.179 0.516 0 0 0 0 0.192 0h0.034v0.474h-0.124c-0.068 0-0.149 0-0.239 0 0 0 0 0-0.158 0.405-0.047 0.154-0.137 0.222-0.32 0.222 0 0 0 0-0.341 0 0 0 0 0 0-0.495 0 0 0 0 0.115 0 0.047 0 0.047 0 0.068-0.021 0 0 0 0 0.725-2.001v0z"></path>
<path fill="#ed1c24" d="M23.266 13.201h0.273c0 0 0 0 0.725 2.001 0.021 0.021 0.021 0.021 0.068 0.021 0 0 0 0 0.090 0 0 0 0 0 0 0.495 0 0 0 0-0.316 0-0.183 0-0.273-0.068-0.32-0.247 0 0 0 0-0.158-0.38 0 0 0 0-0.307 0h-0.055v-0.474h0.226c0 0 0 0-0.179-0.516 0-0.068-0.026-0.132-0.047-0.179v-0.721z"></path>
<path fill="#ed1c24" d="M14.524 16.435c0 0 0 0 1.975 0 0.183 0 0.294 0.094 0.294 0.294 0 0 0 0 0 1.707 0 0.021 0 0.021 0.026 0.021 0 0 0 0 0.179 0 0 0 0 0 0 0.495 0 0 0 0-0.474 0-0.205 0-0.299-0.090-0.299-0.29 0 0 0 0 0-1.728 0 0 0-0.026-0.021-0.026 0 0 0 0-0.909 0 0 0 0 0 0 2.044 0 0 0 0-0.546 0 0 0 0 0 0-2.044 0 0 0 0-0.226 0 0 0 0 0 0-0.474z"></path>
<path fill="#ed1c24" d="M18.432 16.393h0.009v0.521l-0.009-0.004c-0.414 0-0.73 0.337-0.73 0.764 0 0.448 0.316 0.811 0.73 0.811l0.009-0.004v0.516l-0.009 0.004c-0.73 0-1.297-0.585-1.297-1.327 0-0.717 0.567-1.28 1.297-1.28v0z"></path>
<path fill="#ed1c24" d="M18.441 16.393l0.26 0.026c0.61 0.115 1.045 0.627 1.045 1.254 0 0.649-0.435 1.178-1.045 1.297l-0.26 0.026v-0.516l0.29-0.060c0.269-0.124 0.448-0.41 0.448-0.747 0-0.32-0.179-0.589-0.448-0.704l-0.29-0.055v-0.521z"></path>
<path fill="#ed1c24" d="M19.861 16.435c0 0 0 0 0.499 0 0.183 0 0.273 0.094 0.273 0.294 0 0 0 0 0 1.707 0 0.021 0 0.021 0.021 0.021 0 0 0 0 0.657 0 0 0 0 0 0-2.022 0 0 0 0 0.546 0 0 0 0 0 0 2.022 0 0 0 0 0.661 0 0.021 0 0.021 0 0.021-0.021 0 0 0 0 0-1.707 0-0.201 0.090-0.294 0.273-0.294 0 0 0 0 0.499 0 0 0 0 0 0 0.474 0 0 0 0-0.205 0-0.026 0-0.026 0.026-0.026 0.026s0 0 0 1.728c0 0.201-0.090 0.29-0.269 0.29 0 0 0 0-2.432 0-0.205 0-0.294-0.090-0.294-0.29 0 0 0 0 0-1.728 0 0 0-0.026-0.021-0.026 0 0 0 0-0.205 0 0 0 0 0 0-0.474v0z"></path>
<path fill="#ed1c24" d="M23.744 16.435c0 0 0 0 1.702 0 0.205 0 0.273 0.094 0.273 0.273 0 0 0 0 0 0.427h-0.499c0 0 0 0 0-0.201 0-0.026 0-0.026-0.026-0.026 0 0 0 0-0.316 0 0 0 0 0 0 2.044 0 0 0 0-0.546 0 0 0 0 0 0-2.044 0 0 0 0-0.316 0-0.026 0-0.026 0-0.026 0.026 0 0 0 0 0 0.201 0 0 0 0-0.499 0 0 0 0 0 0-0.427 0-0.179 0.068-0.273 0.252-0.273z"></path>
<path fill="#ed1c24" d="M26.423 16.435c0 0 0 0 0.23 0h0.043v0.721c-0.026 0.047-0.047 0.111-0.047 0.179 0 0 0 0-0.183 0.516 0 0 0 0 0.192 0h0.038v0.474h-0.124c-0.073 0-0.149 0-0.243 0 0 0 0 0-0.158 0.38-0.043 0.179-0.137 0.247-0.316 0.247 0 0 0 0-0.341 0 0 0 0 0 0-0.495 0 0 0 0 0.115 0 0.043 0 0.043 0 0.068-0.021 0 0 0 0 0.725-1.997v-0.004z"></path>
<path fill="#ed1c24" d="M26.697 16.435h0.269c0 0 0 0 0.73 2.001 0.021 0.021 0.021 0.021 0.068 0.021h0.090c0 0 0 0 0 0.495 0 0 0 0-0.316 0-0.183 0-0.273-0.068-0.32-0.247 0 0 0 0-0.158-0.38 0 0 0 0-0.307 0h-0.055v-0.474h0.226c0 0 0 0-0.183-0.516 0-0.068-0.021-0.132-0.043-0.179v-0.721z"></path>
<path fill="#ed1c24" d="M11.025 14.272c0.026-0.009 0.060 0.009 0.094 0.055 0 0 0 0 1.545 1.502 0.090 0.090 0.090 0.226 0 0.294 0 0 0 0-1.545 1.527-0.034 0.043-0.068 0.055-0.094 0.043s-0.043-0.055-0.043-0.111v-3.213c0-0.055 0.017-0.090 0.043-0.098z"></path>
<path fill="#ed1c24" d="M8.384 11.767h0.111l0.102 0.043c0 0 0 0 1.591 1.574 0.068 0.090 0.043 0.154-0.068 0.154 0 0 0 0-0.661 0-0.111 0-0.205 0.094-0.205 0.205 0 0 0 0 0 1.169 0 0.111-0.090 0.201-0.226 0.201 0 0 0 0-1.156 0-0.115 0-0.205-0.090-0.205-0.201 0 0 0 0 0-1.169 0-0.111-0.090-0.205-0.205-0.205h-0.704c-0.115 0-0.137-0.064-0.068-0.154 0 0 0 0 1.591-1.574l0.102-0.043z"></path>
<path fill="#ed1c24" d="M5.897 14.238c0.026 0.017 0.043 0.055 0.043 0.111v3.277c0 0.060-0.017 0.094-0.043 0.102-0.030 0.013-0.068 0-0.115-0.034 0 0 0 0-1.566-1.57-0.090-0.068-0.090-0.205 0-0.294 0 0 0 0 1.566-1.549 0.047-0.043 0.085-0.055 0.115-0.043v0z"></path>
<path fill="#ed1c24" d="M7.872 16.819c0 0 0 0 1.156 0 0.137 0 0.23 0.090 0.23 0.205 0 0 0 0 0 1.233 0 0.137 0.090 0.226 0.201 0.226h0.614c0.115 0 0.158 0.064 0.068 0.132 0 0 0 0-1.545 1.549-0.047 0.047-0.102 0.068-0.158 0.068s-0.115-0.021-0.158-0.068c0 0 0 0-1.545-1.549-0.094-0.068-0.047-0.132 0.064-0.132 0 0 0 0 0.661 0 0.115 0 0.205-0.090 0.205-0.226 0 0 0 0 0-1.233 0-0.115 0.090-0.205 0.205-0.205v0z"></path>
</svg>
