<!-- Generated by IcoMoon.io -->
<svg version="1.1" xmlns="http://www.w3.org/2000/svg" width="32" height="32" viewBox="0 0 32 32">
<path fill="#225e63" d="M21.129 16.55l0.294 0.088c-0.020 0.083-0.049 0.152-0.093 0.206s-0.093 0.098-0.157 0.123c-0.064 0.029-0.142 0.044-0.241 0.044-0.118 0-0.211-0.015-0.29-0.049-0.074-0.034-0.137-0.093-0.191-0.182-0.054-0.083-0.083-0.196-0.083-0.329 0-0.177 0.049-0.314 0.142-0.412s0.231-0.142 0.402-0.142c0.137 0 0.241 0.029 0.319 0.083s0.137 0.137 0.172 0.255l-0.294 0.064c-0.010-0.034-0.020-0.059-0.034-0.074-0.020-0.025-0.039-0.044-0.069-0.059s-0.059-0.020-0.088-0.020c-0.074 0-0.133 0.029-0.172 0.093-0.029 0.044-0.044 0.118-0.044 0.211 0 0.118 0.020 0.201 0.054 0.245s0.088 0.069 0.152 0.069c0.064 0 0.113-0.020 0.142-0.054 0.039-0.044 0.064-0.093 0.079-0.162z"></path>
<path fill="#225e63" d="M21.541 16.452c0-0.177 0.049-0.314 0.147-0.412s0.236-0.147 0.412-0.147c0.182 0 0.319 0.049 0.417 0.142 0.098 0.098 0.147 0.231 0.147 0.407 0 0.128-0.020 0.231-0.064 0.309s-0.103 0.142-0.186 0.186c-0.079 0.044-0.182 0.069-0.299 0.069-0.123 0-0.221-0.020-0.304-0.059-0.079-0.039-0.142-0.098-0.196-0.186s-0.074-0.182-0.074-0.309zM21.875 16.452c0 0.108 0.020 0.186 0.059 0.236s0.093 0.074 0.167 0.074c0.074 0 0.128-0.025 0.167-0.069 0.039-0.049 0.059-0.133 0.059-0.25 0-0.103-0.020-0.177-0.064-0.221-0.039-0.049-0.098-0.069-0.167-0.069s-0.123 0.025-0.162 0.074c-0.039 0.039-0.059 0.118-0.059 0.226z"></path>
<path fill="#225e63" d="M22.837 15.912h0.437l0.167 0.658 0.167-0.658h0.437v1.080h-0.275v-0.825l-0.211 0.825h-0.245l-0.211-0.825v0.825h-0.275v-1.080z"></path>
<path fill="#225e63" d="M24.26 15.912h0.555c0.123 0 0.211 0.029 0.27 0.088s0.088 0.137 0.088 0.245c0 0.108-0.034 0.196-0.098 0.255-0.064 0.064-0.167 0.093-0.299 0.093h-0.182v0.402h-0.334v-1.085zM24.594 16.373h0.083c0.064 0 0.108-0.010 0.137-0.034 0.025-0.025 0.039-0.049 0.039-0.083s-0.010-0.064-0.034-0.088c-0.025-0.025-0.064-0.034-0.128-0.034h-0.093v0.241z"></path>
<path fill="#225e63" d="M25.35 15.912h0.334v0.815h0.52v0.265h-0.854v-1.080z"></path>
<path fill="#225e63" d="M26.371 15.912h0.334v1.080h-0.334v-1.080z"></path>
<path fill="#225e63" d="M27.607 16.81h-0.378l-0.054 0.177h-0.339l0.407-1.080h0.363l0.407 1.080h-0.348l-0.059-0.177zM27.539 16.579l-0.118-0.388-0.118 0.388h0.236z"></path>
<path fill="#225e63" d="M28.118 15.912h0.309l0.407 0.599v-0.599h0.314v1.080h-0.314l-0.402-0.594v0.594h-0.314v-1.080z"></path>
<path fill="#225e63" d="M29.296 15.912h1.016v0.265h-0.339v0.815h-0.334v-0.815h-0.339v-0.265z"></path>
<path fill="#225e63" d="M17.114 17.556l0.967-0.304-0.314-0.697c-0.231 0.29-0.461 0.663-0.653 1.001zM16.785 14.371l-1.894-4.221-13.87 0.785 3.843 10.483 7.396-2.331c-0.471-0.677-0.643-1.482-0.098-1.875 0.609-0.442 1.526 0.069 2.11 0.79 0.564-0.942 2.15-3.136 2.513-3.632z"></path>
<path fill="#fefefe" d="M14.459 13.2c0.579 0 1.050-0.442 1.050-0.991s-0.471-0.991-1.050-0.991c-0.579 0-1.050 0.442-1.050 0.991 0 0.545 0.471 0.991 1.050 0.991zM13.6 13.627h1.718v4.491h-1.718v-4.491z"></path>
<path fill="#fefefe" d="M12.751 14.937c0.015 0.005 0.025 0 0.025-0.015v-1.139c0-0.015-0.010-0.029-0.025-0.039 0 0-0.226-0.147-0.913-0.187-0.034-0.020-0.638-0.025-0.8 0-2.503 0.201-2.596 2.012-2.596 2.091v0.442c0 0.054 0 1.904 2.596 2.066 0.255 0.020 0.751 0 0.8 0 0.599 0 1.011-0.182 1.011-0.182 0.015-0.005 0.025-0.020 0.025-0.034v-1.065c0-0.015-0.010-0.020-0.020-0.010 0 0-0.187 0.147-1.001 0.231-0.231 0.025-0.344 0.015-0.427 0-1.158-0.196-1.212-1.041-1.212-1.041 0-0.015-0.005-0.039-0.005-0.049v-0.324c0-0.015 0-0.039 0.005-0.049 0 0 0.079-0.908 1.212-1.006h0.427c0.496 0.064 0.898 0.309 0.898 0.309z"></path>
<path fill="#fefefe" d="M3.671 18.103c0 0.015 0.010 0.025 0.025 0.025h1.674c0.015 0 0.025-0.010 0.025-0.025v-1.306c0-0.015 0.010-0.025 0.025-0.025 0 0 2.675 0.191 2.675-1.6 0-1.418-1.679-1.571-2.228-1.546-0.010 0-2.169 0-2.169 0-0.015 0-0.025 0.010-0.025 0.025v4.452zM5.364 15.777v-1.173h0.412c0 0 0.594 0.025 0.643 0.432 0.010 0.029 0.010 0.231 0 0.241-0.079 0.476-0.594 0.501-0.594 0.501h-0.461z"></path>
<path fill="#2bbc5d" d="M14.508 20.285c0.137 0 0.245 0 0.422-0.079 0.609-0.319 2.665-5.34 4.834-6.886 0.015-0.010 0.029-0.025 0.039-0.039 0.015-0.020 0.015-0.039 0.015-0.039s0-0.103-0.319-0.103c-1.929-0.054-3.936 3.995-4.991 5.595-0.015 0.020-0.083 0-0.083 0s-0.707-0.834-1.32-1.153c-0.015-0.005-0.083-0.029-0.157-0.025-0.049 0-0.334 0.059-0.466 0.196-0.157 0.167-0.152 0.26-0.152 0.461 0 0.015 0.010 0.083 0.029 0.118 0.152 0.265 0.834 1.207 1.399 1.728 0.083 0.064 0.216 0.226 0.751 0.226z"></path>
<path fill="#225e63" d="M20.334 11.804h1.605c0.319 0 0.574 0.044 0.766 0.128 0.196 0.088 0.358 0.211 0.481 0.368 0.128 0.162 0.221 0.348 0.275 0.559 0.059 0.211 0.088 0.437 0.088 0.677 0 0.373-0.044 0.663-0.128 0.869s-0.201 0.378-0.353 0.52c-0.152 0.137-0.314 0.231-0.486 0.28-0.236 0.064-0.452 0.093-0.643 0.093h-1.605v-3.494zM21.413 12.594v1.909h0.265c0.226 0 0.388-0.025 0.481-0.074s0.172-0.137 0.226-0.26c0.054-0.123 0.083-0.329 0.083-0.609 0-0.373-0.059-0.623-0.182-0.761s-0.319-0.206-0.604-0.206h-0.27z"></path>
<path fill="#225e63" d="M23.848 14.145l1.031-0.064c0.025 0.167 0.069 0.294 0.137 0.383 0.113 0.142 0.27 0.211 0.476 0.211 0.152 0 0.275-0.034 0.358-0.108s0.128-0.157 0.128-0.25c0-0.088-0.039-0.172-0.118-0.245s-0.265-0.137-0.555-0.201c-0.476-0.108-0.81-0.25-1.016-0.427s-0.304-0.402-0.304-0.677c0-0.182 0.054-0.348 0.157-0.51s0.26-0.285 0.471-0.378c0.211-0.093 0.496-0.137 0.859-0.137 0.447 0 0.79 0.083 1.021 0.25 0.236 0.167 0.373 0.432 0.417 0.795l-1.021 0.059c-0.029-0.157-0.083-0.27-0.172-0.344s-0.206-0.108-0.358-0.108c-0.128 0-0.221 0.025-0.285 0.079s-0.093 0.118-0.093 0.196c0 0.054 0.025 0.108 0.079 0.152 0.049 0.044 0.172 0.088 0.363 0.128 0.471 0.103 0.81 0.206 1.016 0.309s0.353 0.236 0.447 0.388c0.093 0.152 0.137 0.329 0.137 0.52 0 0.226-0.064 0.432-0.186 0.618-0.123 0.191-0.299 0.334-0.52 0.432s-0.506 0.147-0.844 0.147c-0.594 0-1.006-0.113-1.237-0.344-0.226-0.231-0.353-0.52-0.388-0.874z"></path>
<path fill="#225e63" d="M27.298 14.145l1.031-0.064c0.025 0.167 0.069 0.294 0.137 0.383 0.113 0.142 0.27 0.211 0.476 0.211 0.152 0 0.275-0.034 0.358-0.108s0.128-0.157 0.128-0.25c0-0.088-0.039-0.172-0.118-0.245s-0.265-0.137-0.555-0.201c-0.476-0.108-0.81-0.25-1.016-0.427-0.201-0.177-0.304-0.402-0.304-0.677 0-0.182 0.054-0.348 0.157-0.51s0.26-0.285 0.471-0.378c0.211-0.093 0.496-0.137 0.859-0.137 0.447 0 0.79 0.083 1.021 0.25 0.236 0.167 0.373 0.432 0.417 0.795l-1.021 0.059c-0.029-0.157-0.083-0.27-0.172-0.344s-0.206-0.108-0.358-0.108c-0.128 0-0.221 0.025-0.285 0.079s-0.093 0.118-0.093 0.196c0 0.054 0.025 0.108 0.079 0.152 0.049 0.044 0.172 0.088 0.363 0.128 0.471 0.103 0.81 0.206 1.016 0.309s0.353 0.236 0.447 0.388c0.093 0.152 0.137 0.329 0.137 0.52 0 0.226-0.064 0.432-0.186 0.618-0.123 0.191-0.299 0.334-0.52 0.432s-0.506 0.147-0.844 0.147c-0.594 0-1.006-0.113-1.237-0.344s-0.358-0.52-0.388-0.874z"></path>
</svg>
