<!-- Generated by IcoMoon.io -->
<svg version="1.1" xmlns="http://www.w3.org/2000/svg" width="32" height="32" viewBox="0 0 32 32">
<path fill="none" stroke-linejoin="round" stroke-linecap="round" stroke-miterlimit="4" stroke-width="2" stroke="#000" d="M16.881 3.358l-0.040 0.093-3.867 8.973h-3.8c-0.907 0-1.773 0.187-2.56 0.52l2.333-5.573 0.053-0.133 0.093-0.213c0.027-0.080 0.053-0.16 0.093-0.227 1.747-4.040 3.72-4.96 7.693-3.44z"></path>
<path fill="none" stroke-linejoin="round" stroke-linecap="round" stroke-miterlimit="4" stroke-width="2" stroke="#000" d="M24.067 12.691c-0.6-0.187-1.24-0.267-1.88-0.267h-9.213l3.907-9.067c0.2 0.067 0.387 0.16 0.587 0.24l2.947 1.24c1.64 0.68 2.787 1.387 3.48 2.24 0.133 0.16 0.24 0.307 0.333 0.48 0.12 0.187 0.213 0.373 0.267 0.573 0.053 0.12 0.093 0.24 0.12 0.347 0.36 1.12 0.147 2.493-0.547 4.213z"></path>
<path fill="none" stroke-linejoin="round" stroke-linecap="round" stroke-miterlimit="4" stroke-width="2" stroke="#000" d="M28.696 18.931v2.6c0 0.267-0.013 0.533-0.027 0.8-0.253 4.653-2.853 7-7.787 7h-10.4c-0.32 0-0.64-0.027-0.947-0.067-4.24-0.28-6.507-2.547-6.787-6.787-0.040-0.307-0.067-0.627-0.067-0.947v-2.6c0-2.68 1.627-4.987 3.947-5.987 0.8-0.333 1.653-0.52 2.56-0.52h13.013c0.653 0 1.293 0.093 1.88 0.267 2.653 0.813 4.613 3.293 4.613 6.24z"></path>
<path fill="none" stroke-linejoin="round" stroke-linecap="round" stroke-miterlimit="4" stroke-width="2" stroke="#000" d="M8.947 7.371l-2.333 5.573c-2.32 1-3.947 3.307-3.947 5.987v-3.907c0-3.787 2.693-6.947 6.28-7.653z"></path>
<path fill="none" stroke-linejoin="round" stroke-linecap="round" stroke-miterlimit="4" stroke-width="2" stroke="#000" d="M28.692 15.024v3.907c0-2.933-1.947-5.427-4.613-6.227 0.693-1.733 0.893-3.093 0.56-4.227-0.027-0.12-0.067-0.24-0.12-0.347 2.48 1.28 4.173 3.907 4.173 6.893z"></path>
</svg>
