<!-- Generated by IcoMoon.io -->
<svg version="1.1" xmlns="http://www.w3.org/2000/svg" width="64" height="32" viewBox="0 0 64 32">
<path fill="#60b238" d="M18.385 17.755h-1.090v-3.852h3.923v3.852h-1.089v-3.104h-1.744z"></path>
<path fill="#60b238" d="M21.747 14.959v3.814h1.004v-1.304c0.337 0.363 0.885 0.391 1.017 0.391 0.958 0 1.545-0.611 1.545-1.497 0-0.925-0.581-1.508-1.525-1.508-0.238 0-0.7 0.039-1.083 0.44h-0.020l0.006-0.336h-0.944zM22.704 16.352c0-0.781 0.482-0.935 0.786-0.935 0.297 0 0.779 0.154 0.779 0.935 0 0.485-0.205 0.947-0.779 0.947-0.588 0-0.786-0.462-0.786-0.947z"></path>
<path fill="#60b238" d="M27.803 17.42c-0.37 0.346-0.726 0.44-1.122 0.44-1.083 0-1.123-0.815-1.123-1.15v-1.75h1.004v1.618c0 0.556 0.192 0.721 0.561 0.721 0.634 0 0.68-0.567 0.68-0.771v-1.569h1.004v2.796h-1.004v-0.335z"></path>
<path fill="#60b238" d="M30.247 16.577h0.614c0.475 0 0.574 0.143 0.574 0.33 0 0.121-0.066 0.286-0.562 0.286h-0.627v-0.617zM29.243 14.959v2.796h1.994c0.726 0 1.228-0.143 1.228-0.715 0-0.44-0.245-0.633-0.799-0.732v-0.017c0.363-0.050 0.68-0.275 0.68-0.655 0-0.677-0.793-0.677-1.103-0.677h-2.001zM30.247 15.521h0.541c0.284 0 0.528 0.044 0.528 0.275 0 0.253-0.383 0.259-0.548 0.259h-0.521v-0.534z"></path>
<path fill="#60b238" d="M33.733 15.862c0-0.413 0.436-0.446 0.614-0.446 0.112 0 0.528 0.006 0.542 0.369 0 0.028 0 0.050 0 0.077-0.020 0.275-0.284 0.22-1.023 0.314-0.608 0.083-1.249 0.236-1.249 0.875 0 0.231 0.099 0.809 1.169 0.809 0.41 0 0.859-0.105 1.123-0.38h0.020l0.086 0.275h1.057v-0.049c-0.191-0.039-0.205-0.226-0.198-0.528l0.020-1.277c0.007-0.324-0.026-1.045-1.539-1.045-0.363 0-1.532 0.033-1.578 1.007h0.958zM34.896 16.599c0 0.561-0.489 0.699-0.733 0.699-0.185 0-0.515-0.061-0.515-0.325 0-0.314 0.376-0.374 0.588-0.402 0.39-0.055 0.356-0.038 0.66-0.149v0.176z"></path>
<path fill="#60b238" d="M36.005 15.521v-0.562h3.223v0.562h-1.109v2.234h-1.004v-2.234z"></path>
<path fill="#60b238" d="M40.509 14.651h2.503v-0.748h-3.593v3.852h2.206c1.070 0 1.757-0.374 1.757-1.161 0-1.233-1.373-1.26-1.757-1.26h-1.116v-0.682zM40.509 16.082h0.904c0.265 0 0.793 0.028 0.793 0.49 0 0.363-0.383 0.435-0.812 0.435h-0.885v-0.924z"></path>
<path fill="#60b238" d="M44.69 15.862c0-0.413 0.436-0.446 0.614-0.446 0.112 0 0.529 0.006 0.542 0.369 0 0.028 0 0.050 0 0.077-0.020 0.275-0.284 0.22-1.024 0.314-0.607 0.083-1.248 0.236-1.248 0.875 0 0.231 0.099 0.809 1.169 0.809 0.409 0 0.859-0.105 1.123-0.38h0.020l0.086 0.275h1.057v-0.049c-0.191-0.039-0.205-0.226-0.198-0.528l0.020-1.277c0.007-0.324-0.027-1.045-1.539-1.045-0.363 0-1.532 0.033-1.578 1.007h0.958zM45.852 16.599c0 0.561-0.489 0.699-0.733 0.699-0.185 0-0.515-0.061-0.515-0.325 0-0.314 0.376-0.374 0.587-0.402 0.39-0.055 0.357-0.038 0.661-0.149v0.176z"></path>
<path fill="#60b238" d="M48.282 17.755h-1.004v-2.796h1.004v1.051h1.209v-1.051h1.004v2.796h-1.004v-1.183h-1.209z"></path>
<path fill="#60b238" d="M53.031 14.959h1.116l-1.38 1.31 1.446 1.486h-1.176l-1.083-1.222h-0.020v1.222h-1.004v-2.796h1.004v1.123h0.020z"></path>
<path fill="#373435" d="M10.005 17.765h2.514v-2.514h-2.514z"></path>
<path fill="#60b238" d="M15.11 12.664c0 0.855 0 2.917 0 3.772-0.239 0-0.281 0-0.513 0-0.221-1.865-1.394-3.037-3.259-3.259 0-0.232 0-0.274 0-0.513 0.855 0 2.917 0 3.772 0zM10.008 11.335v3.13h0.665c1.75 0 2.637 0.887 2.637 2.636v0.665h3.129v-6.431h-6.431z"></path>
</svg>
