<!-- Generated by IcoMoon.io -->
<svg version="1.1" xmlns="http://www.w3.org/2000/svg" width="32" height="32" viewBox="0 0 32 32">
<path fill="none" stroke-linejoin="round" stroke-linecap="round" stroke-miterlimit="4" stroke-width="2" stroke="#000" d="M25.333 12c0 1.933-0.573 3.707-1.56 5.187-1.44 2.133-3.72 3.64-6.373 4.027-0.453 0.080-0.92 0.12-1.4 0.12s-0.947-0.040-1.4-0.12c-2.653-0.387-4.933-1.893-6.373-4.027-0.987-1.48-1.56-3.253-1.56-5.187 0-5.16 4.173-9.333 9.333-9.333s9.333 4.173 9.333 9.333z"></path>
<path fill="none" stroke-linejoin="round" stroke-linecap="round" stroke-miterlimit="4" stroke-width="2" stroke="#000" d="M28.333 24.627l-2.2 0.52c-0.493 0.12-0.88 0.493-0.987 0.987l-0.467 1.96c-0.253 1.067-1.613 1.387-2.32 0.547l-6.36-7.307-6.36 7.32c-0.707 0.84-2.067 0.52-2.32-0.547l-0.467-1.96c-0.12-0.493-0.507-0.88-0.987-0.987l-2.2-0.52c-1.013-0.24-1.373-1.507-0.64-2.24l5.2-5.2c1.44 2.133 3.72 3.64 6.373 4.027 0.453 0.080 0.92 0.12 1.4 0.12s0.947-0.040 1.4-0.12c2.653-0.387 4.933-1.893 6.373-4.027l5.2 5.2c0.733 0.72 0.373 1.987-0.64 2.227z"></path>
<path fill="none" stroke-linejoin="round" stroke-linecap="round" stroke-miterlimit="4" stroke-width="2" stroke="#000" d="M16.773 7.973l0.787 1.573c0.107 0.213 0.387 0.427 0.64 0.467l1.427 0.24c0.907 0.147 1.12 0.813 0.467 1.467l-1.107 1.107c-0.187 0.187-0.293 0.547-0.227 0.813l0.32 1.373c0.253 1.080-0.32 1.507-1.28 0.933l-1.333-0.787c-0.24-0.147-0.64-0.147-0.88 0l-1.333 0.787c-0.96 0.56-1.533 0.147-1.28-0.933l0.32-1.373c0.053-0.253-0.040-0.627-0.227-0.813l-1.107-1.107c-0.653-0.653-0.44-1.307 0.467-1.467l1.427-0.24c0.24-0.040 0.52-0.253 0.627-0.467l0.787-1.573c0.387-0.853 1.080-0.853 1.507 0z"></path>
</svg>
