<!-- Generated by IcoMoon.io -->
<svg version="1.1" xmlns="http://www.w3.org/2000/svg" width="32" height="32" viewBox="0 0 32 32">
<path fill="none" stroke-linejoin="round" stroke-linecap="round" stroke-miterlimit="4" stroke-width="2" stroke="#000" d="M27.88 14.827c0 6.52-4.733 12.627-11.2 14.413-0.44 0.12-0.92 0.12-1.36 0-6.467-1.787-11.2-7.893-11.2-14.413v-5.853c0-1.093 0.827-2.333 1.853-2.747l7.427-3.040c1.667-0.68 3.547-0.68 5.213 0l7.427 3.040c1.013 0.413 1.853 1.653 1.853 2.747l-0.013 5.853z"></path>
<path fill="none" stroke-linejoin="round" stroke-linecap="round" stroke-miterlimit="10" stroke-width="2" stroke="#000" d="M16 16.667c1.473 0 2.667-1.194 2.667-2.667s-1.194-2.667-2.667-2.667-2.667 1.194-2.667 2.667c0 1.473 1.194 2.667 2.667 2.667z"></path>
<path fill="none" stroke-linejoin="round" stroke-linecap="round" stroke-miterlimit="10" stroke-width="2" stroke="#000" d="M16 16.667v4"></path>
</svg>
